<svg xmlns="http://www.w3.org/2000/svg" viewBox="0 0 409.6 409.6"><defs><style>.cls-1{fill:#ccc;}</style></defs><title>Asset 5</title><g id="Layer_2" data-name="Layer 2"><g id="Layer_1-2" data-name="Layer 1">

<path fill="#F8F8F8" class="cls-1" d="M349.62,60A204.8,204.8,0,1,0,60,349.62,204.8,204.8,0,0,0,349.62,60Zm-9.05,280.58A192,192,0,1,1,69,69,192,192,0,0,1,340.57,340.57Z"/><path class="cls-1" d="M344,92a6.4,6.4,0,0,0-9.94,8.06A166.41,166.41,0,0,1,93.87,328.84a6.4,6.4,0,1,0-8.54,9.53A179.2,179.2,0,0,0,344,92Z"/>

<path fill="#F8F8F8" class="cls-1" d="M38.4,204.8c0-91.75,74.65-166.4,166.4-166.4A166.07,166.07,0,0,1,315.73,80.77a6.4,6.4,0,1,0,8.54-9.54,179.21,179.21,0,0,0-258.7,246.4,6.4,6.4,0,0,0,9.94-8.06A166.8,166.8,0,0,1,38.4,204.8Z"/>

<path fill="#F8F8F8" class="cls-1" d="M178.18,310.86h41.37a6.43,6.43,0,0,0,6.43-6.43V211.3h21.49a6.43,6.43,0,0,0,6.4-5.77l3.62-35.16a6.42,6.42,0,0,0-6.39-7.09H226V149c0-2.94.93-3.16,2.35-3.16h22.24a6.43,6.43,0,0,0,6.43-6.43V105.3a6.43,6.43,0,0,0-6.4-6.43l-30.67-.12c-21.5,0-33,9.45-38.81,17.38-8.15,11.08-9.37,24.06-9.37,30.81v16.34H158.51a6.43,6.43,0,0,0-6.43,6.43v35.16a6.43,6.43,0,0,0,6.43,6.43h13.24v93.13A6.43,6.43,0,0,0,178.18,310.86ZM164.93,198.45V176.13h13.25a6.42,6.42,0,0,0,6.43-6.42V146.94c0-4.16.67-14.76,6.87-23.19,5.93-8.06,15.5-12.15,28.42-12.15l24.24.1V133H228.33c-7.57,0-15.21,4.95-15.21,16v20.68a6.43,6.43,0,0,0,6.43,6.43H244l-2.3,22.31H219.55a6.43,6.43,0,0,0-6.43,6.43V298H184.61V204.88a6.43,6.43,0,0,0-6.43-6.43Z"/></g></g></svg>