<svg xmlns="http://www.w3.org/2000/svg" viewBox="0 0 409.6 409.6"><defs><style>.cls-1{fill:#ccc;}</style></defs><title>Asset 4</title><g id="Layer_2" data-name="Layer 2"><g id="Layer_1-2" data-name="Layer 1">

<path fill="#F8F8F8" class="cls-1" d="M349.62,60A204.8,204.8,0,1,0,60,349.62,204.8,204.8,0,0,0,349.62,60Zm-9.05,280.58A192,192,0,1,1,69,69,192,192,0,0,1,340.57,340.57Z"/>

<path fill="#F8F8F8" class="cls-1" d="M344,92a6.4,6.4,0,0,0-9.94,8.06A166.41,166.41,0,0,1,93.87,328.84a6.4,6.4,0,1,0-8.54,9.53A179.2,179.2,0,0,0,344,92Z"/>

<path fill="#F8F8F8" class="cls-1" d="M38.4,204.8c0-91.75,74.65-166.4,166.4-166.4A166.07,166.07,0,0,1,315.73,80.77a6.4,6.4,0,1,0,8.54-9.54,179.21,179.21,0,0,0-258.7,246.4,6.4,6.4,0,0,0,9.94-8.06A166.8,166.8,0,0,1,38.4,204.8Z"/>

<path fill="#F8F8F8" class="cls-1" d="M260.08,99.26H149.92a50.71,50.71,0,0,0-50.66,50.66V260.08a50.71,50.71,0,0,0,50.66,50.66H260.08a50.71,50.71,0,0,0,50.66-50.66V149.92A50.71,50.71,0,0,0,260.08,99.26ZM297.4,260.08a37.36,37.36,0,0,1-37.32,37.32H149.92a37.36,37.36,0,0,1-37.32-37.32V149.92a37.36,37.36,0,0,1,37.32-37.32H260.08a37.36,37.36,0,0,1,37.32,37.32Z"/>

<path fill="#F8F8F8" class="cls-1" d="M264.11,137.91a8.12,8.12,0,1,0,8.12,8.12A8.13,8.13,0,0,0,264.11,137.91Z"/>

<path fill="#F8F8F8" class="cls-1" d="M205,153.16A51.84,51.84,0,1,0,256.84,205,51.9,51.9,0,0,0,205,153.16Zm0,90.34A38.5,38.5,0,1,1,243.49,205,38.54,38.54,0,0,1,205,243.5Z"/></g></g></svg>