<svg xmlns="http://www.w3.org/2000/svg" viewBox="0 0 409.6 409.6"><defs><style>.cls-1{fill:#ccc;}</style></defs><title>Asset 6</title><g id="Layer_2" data-name="Layer 2"><g id="Layer_1-2" data-name="Layer 1">

<path fill="#F8F8F8" class="cls-1" d="M349.62,60A204.8,204.8,0,1,0,60,349.62,204.8,204.8,0,0,0,349.62,60Zm-9.05,280.58A192,192,0,1,1,69,69,192,192,0,0,1,340.57,340.57Z"/>

<path fill="#F8F8F8" class="cls-1" d="M344,92a6.4,6.4,0,0,0-9.94,8.06A166.41,166.41,0,0,1,93.87,328.84a6.4,6.4,0,1,0-8.54,9.53A179.2,179.2,0,0,0,344,92Z"/>

<path fill="#F8F8F8" class="cls-1" d="M38.4,204.8c0-91.75,74.65-166.4,166.4-166.4A166.07,166.07,0,0,1,315.73,80.77a6.4,6.4,0,1,0,8.54-9.54,179.21,179.21,0,0,0-258.7,246.4,6.4,6.4,0,0,0,9.94-8.06A166.8,166.8,0,0,1,38.4,204.8Z"/>

<path fill="#F8F8F8" class="cls-1" d="M184.3,310.58a68.61,68.61,0,0,1-73.1-73.11c2.43-36.12,33.15-63.83,69.36-63.83h10.06a7.09,7.09,0,0,1,7.09,7.09V202.8a7.09,7.09,0,0,1-7.09,7.09h-10.4c-17.08,0-31.7,13-32.86,30.05a32.34,32.34,0,0,0,34.48,34.48c17-1.16,30-15.78,30-32.86V105.09A7.09,7.09,0,0,1,219,98h22.07a7.09,7.09,0,0,1,7.09,7.09v11a32.31,32.31,0,0,0,32.3,32.31h11a7.09,7.09,0,0,1,7.1,7.09v22.06a7.09,7.09,0,0,1-7.1,7.09h-11a67.48,67.48,0,0,1-32.3-8.16v64.71C248.14,277.43,220.43,308.15,184.3,310.58Zm-4.71-125.91a57.52,57.52,0,1,0,57.52,57.52V155.37l8.83,6.66a57,57,0,0,0,34.5,11.61h0a7.08,7.08,0,0,0,7.09-7.09h0a7.08,7.08,0,0,0-7.09-7.09h0a43.33,43.33,0,0,1-43.33-43.34h0A7.1,7.1,0,0,0,230,109h0a7.1,7.1,0,0,0-7.1,7.09V241.47c0,22.28-18.12,42.46-40.34,44a43.39,43.39,0,0,1-46.23-46.23c1.5-22.22,21.68-40.34,44-40.34h0a6.38,6.38,0,0,0,6.37-6.38v-.72a7.1,7.1,0,0,0-7.09-7.09Z"/></g></g></svg>