<?xml version="1.0" standalone="no"?>
<!DOCTYPE svg PUBLIC "-//W3C//DTD SVG 20010904//EN"
 "http://www.w3.org/TR/2001/REC-SVG-20010904/DTD/svg10.dtd">
<svg version="1.0" xmlns="http://www.w3.org/2000/svg"
 width="256.000000pt" height="256.000000pt" viewBox="0 0 256.000000 256.000000"
 preserveAspectRatio="xMidYMid meet">
<metadata>
Created by potrace 1.11, written by Peter Selinger 2001-2013
</metadata>
<g transform="translate(0.000000,256.000000) scale(0.100000,-0.100000)"
fill="#000000" stroke="none">
<path d="M130 2367 l0 -192 383 -383 382 -382 128 128 127 127 -448 448 -447
447 -63 0 -62 0 0 -193z"/>
<path d="M1513 1769 l-791 -792 -43 18 c-58 23 -210 31 -280 15 -269 -62 -444
-334 -388 -602 39 -189 208 -358 397 -397 269 -56 544 122 602 390 16 71 8
208 -15 273 l-17 49 151 151 151 151 151 -152 152 -151 -18 -44 c-23 -57 -31
-209 -15 -279 43 -187 195 -340 381 -384 307 -72 605 149 626 465 17 247 -153
474 -396 530 -70 16 -222 8 -279 -15 l-44 -18 -151 152 -152 151 448 448 447
447 0 193 0 192 -63 0 -62 0 -792 -791z m-191 -446 c38 -34 11 -103 -40 -103
-54 0 -81 62 -45 102 20 22 61 23 85 1z m-733 -569 c113 -33 192 -157 176
-274 -10 -70 -60 -148 -118 -184 -58 -36 -142 -45 -215 -25 -61 17 -142 96
-160 155 -34 116 3 231 92 292 80 53 137 63 225 36z m1582 -20 c109 -60 155
-180 117 -308 -16 -55 -99 -138 -154 -154 -127 -37 -248 8 -307 116 -58 106
-42 218 42 302 84 84 197 100 302 44z"/>
</g>
</svg>
