<?xml version="1.0" standalone="no"?>
<!DOCTYPE svg PUBLIC "-//W3C//DTD SVG 1.1//EN" "http://www.w3.org/Graphics/SVG/1.1/DTD/svg11.dtd" >
<svg xmlns="http://www.w3.org/2000/svg" xmlns:xlink="http://www.w3.org/1999/xlink" version="1.1">
<metadata>
Created by FontForge 20170731 at Fri Apr  7 15:41:55 2017
 By Aleksey,,,
2017 | All Rights Reserved, Font Forestry
</metadata>
<defs>
<font id="Waves-Regular" horiz-adv-x="355" >
  <font-face 
    font-family="Waves"
    font-weight="400"
    font-stretch="normal"
    units-per-em="1000"
    panose-1="0 0 5 0 0 0 0 0 0 0"
    ascent="800"
    descent="-200"
    x-height="687"
    cap-height="688"
    bbox="-394 -200 575 900"
    underline-thickness="50"
    underline-position="-200"
    unicode-range="U+0020-2248"
  />
<missing-glyph horiz-adv-x="550" 
d="M451 900v-1100h-349v1100h349zM366 826h-181v-36h71v-41h-72v-36h182v36h-72v41h72v36zM294 684h-110v-114h182v37h-72v77zM256 647v-40h-36v40h36zM366 540h-182v-36h72v-41h-72v-36h110v77h72v36zM366 474h-36v-72h-146v-38h182v110zM366 340h-110v-61h38v25h36v-52
h-110v88h-36v-124h182v124zM366 150h-182v-124h182v124zM330 114v-52h-110v52h110zM366 0h-182v-36h77l-77 -52v-36h182v36h-112l77 52h35v36z" />
    <glyph glyph-name=".notdef" horiz-adv-x="550" 
d="M451 900v-1100h-349v1100h349zM366 826h-181v-36h71v-41h-72v-36h182v36h-72v41h72v36zM294 684h-110v-114h182v37h-72v77zM256 647v-40h-36v40h36zM366 540h-182v-36h72v-41h-72v-36h110v77h72v36zM366 474h-36v-72h-146v-38h182v110zM366 340h-110v-61h38v25h36v-52
h-110v88h-36v-124h182v124zM366 150h-182v-124h182v124zM330 114v-52h-110v52h110zM366 0h-182v-36h77l-77 -52v-36h182v36h-112l77 52h35v36z" />
    <glyph glyph-name=".null" horiz-adv-x="0" 
 />
    <glyph glyph-name="nonmarkingreturn" horiz-adv-x="333" 
 />
    <glyph glyph-name="space" unicode=" " horiz-adv-x="200" 
 />
    <glyph glyph-name="exclam" unicode="!" horiz-adv-x="106" 
d="M47 102l-19 576h49l-19 -576h-11zM54 -9q-5 0 -11 2q-13 4 -19 17t-2 25q3 12 16 19q11 6 25 2q13 -5 19 -17q6 -13 2 -26t-16 -19q-7 -3 -14 -3z" />
    <glyph glyph-name="quotedbl" unicode="&#x22;" horiz-adv-x="163" 
d="M33 586l-13 106h52l-11 -106h-28zM104 586l-13 106h52l-11 -106h-28z" />
    <glyph glyph-name="numbersign" unicode="#" horiz-adv-x="389" 
d="M83 141l10 106h-73l4 50h73l7 86h-82l5 49h82l10 114h49l-10 -114h89l10 114h49l-10 -114h73l-4 -49h-73l-8 -86h83l-4 -50h-83l-9 -106h-50l9 106h-88l-9 -106h-50zM147 297h88l7 86h-88z" />
    <glyph glyph-name="dollar" unicode="$" horiz-adv-x="246" 
d="M109 43v38q-10 2 -19 6q-10 5 -18 12q-2 1 -6 5.5t-7.5 7t-7.5 3.5q-14 4 -14 -7v-28h-8v154h5q1 -16 5 -37q3 -28 15 -53q16 -35 38 -47l1 -1h1q3 -2 15 -7v218q-56 58 -71 85q-44 76 12 135q25 25 59 31v41h24v-41q21 -4 34 -15q9 -6 11 -7q7 -3 12 2q0 1 0.5 2.5
t1.5 2.5v20h8v-149q-1 0 -3 0.5t-3 0.5q0 8 -2 26q-2 22 -5 32q-18 71 -54 80v-210q47 -51 65 -78q55 -86 -2 -152q-25 -29 -63 -34v-36h-24zM109 370v183q-19 -5 -33 -21.5t-19 -35.5q-13 -45 25 -95q16 -20 27 -31zM133 86q29 2 44 21q11 14 14 32q8 46 -25 101
q-11 18 -33 42v-196z" />
    <glyph glyph-name="percent" unicode="%" horiz-adv-x="408" 
d="M120 95l117 408q-28 -16 -63 -16q-11 -1 -35 3q28 -23 28 -62q0 -32 -21.5 -55t-51.5 -23q-31 0 -52.5 23t-21.5 55q0 33 21.5 56t52.5 23q1 0 43 -9q27 -6 52 -2q31 4 47 16q6 4 6 10h47l-122 -427h-47zM94 352q18 0 31 22.5t13 53.5q0 32 -13 54.5t-31 22.5
q-19 0 -32 -22.5t-13 -54.5t13 -54t32 -22zM315 112q-31 0 -52.5 23t-21.5 56q0 32 21.5 55t52.5 23t52 -23t21 -55q0 -33 -21 -56t-52 -23zM315 114q18 0 31 22.5t13 54.5q0 31 -13 53.5t-31 22.5q-19 0 -32 -22t-13 -54t13 -54.5t32 -22.5z" />
    <glyph glyph-name="ampersand" unicode="&#x26;" horiz-adv-x="409" 
d="M324 -12q-35 0 -64 72q-12 -20 -30 -38q-26 -26 -68.5 -27t-71.5 22q-61 47 -70 167q-6 85 51 163q14 20 48 54q2 3 5 5.5t6.5 6l5.5 5.5l15 13q-3 10 -9 28q-27 99 -3 179q6 20 22.5 41t35.5 24q17 3 31 -8q25 -23 22 -74q-3 -82 -56 -152q-4 -6 -5 -7l37 -130
q43 -147 58 -200l2 5q34 107 34 263v7q-2 23 -20 38.5t-41 15.5v7h130v-7q-23 0 -40 -14.5t-21 -36.5v-11q-1 -162 -35 -264q-1 -7 -5 -16q11 -36 29 -71t30 -35q5 0 8 6q9 16 13 41q3 13 4 28.5t1 23.5v9h8q0 -57 -13 -92q-2 -6 -6 -14q-14 -24 -33 -27h-5zM186 471l2 2
q52 69 55 148q3 48 -20 68q-11 7 -18 7q-21 -5 -30 -21q-33 -53 10 -199q0 -1 1 -3v-2zM244 49q1 2 5.5 9t7.5 11q-5 13 -13 40l-60 207q-4 13 -14.5 50t-16.5 57l-16 -15l-12 -12q-49 -54 -59 -131t15 -144q11 -34 38.5 -64t61 -38.5t63.5 30.5z" />
    <glyph glyph-name="quotesingle" unicode="'" horiz-adv-x="113" 
d="M39 573q-1 1 -1 6q22 11 26 23q3 10 1 18q-8 -2 -12 -2q-13 0 -23 10t-10 23q0 14 9.5 23.5t23.5 9.5q28 0 37 -33q8 -24 -1 -45q-7 -17 -25 -27q-10 -6 -17 -6q-7 -2 -8 0z" />
    <glyph glyph-name="parenleft" unicode="(" horiz-adv-x="181" 
d="M161 -8q-58 0 -99.5 103t-41.5 249t41.5 249t99.5 103v-6q-35 0 -60 -101.5t-25 -244.5t25 -244.5t60 -101.5v-6z" />
    <glyph glyph-name="parenright" unicode=")" horiz-adv-x="181" 
d="M20 -8v6q35 0 60 101.5t25 244.5t-25 244.5t-60 101.5v6q58 0 99.5 -103t41.5 -249t-41.5 -249t-99.5 -103z" />
    <glyph glyph-name="asterisk" unicode="*" horiz-adv-x="280" 
d="M115 563v81l-70 -41l-25 43l70 41l-70 40l25 43l70 -40v81h50v-81l70 40l25 -43l-71 -40l71 -41l-25 -43l-70 41v-81h-50z" />
    <glyph glyph-name="plus" unicode="+" horiz-adv-x="288" 
d="M119 219v99h-99v50h99v99h50v-99h99v-50h-99v-99h-50z" />
    <glyph glyph-name="comma" unicode="," horiz-adv-x="113" 
d="M39 -44q-1 0 -1 6q22 11 26 23q3 10 1 18q-8 -2 -12 -2q-13 0 -23 9.5t-10 23.5t9.5 23.5t23.5 9.5q28 0 37 -33q8 -24 -1 -45q-7 -17 -25 -27q-10 -6 -17 -6q-7 -2 -8 0z" />
    <glyph glyph-name="hyphen" unicode="-" horiz-adv-x="288" 
d="M20 317v50h248v-50h-248z" />
    <glyph glyph-name="period" unicode="." horiz-adv-x="106" 
d="M54 1q-5 0 -11 2q-13 4 -19 17t-2 25q3 12 16 19q11 6 25 2q13 -5 19 -17q6 -13 2 -26t-16 -19q-7 -3 -14 -3z" />
    <glyph glyph-name="slash" unicode="/" horiz-adv-x="258" 
d="M20 0l168 688h50l-168 -688h-50z" />
    <glyph glyph-name="zero" unicode="0" horiz-adv-x="233" 
d="M116 -5q-41 0 -69 105q-27 105 -27 246t27 246q26 98 65 105q1 0 2 1h2h2l2 -1q39 -6 66 -105q27 -105 27 -246t-27 -246q-28 -105 -70 -105zM116 5q21 0 37 98q17 100 17 243q0 144 -17 244q-6 39 -18 73q-9 22 -17 24h-2h-2q-19 -6 -34 -97q-18 -106 -18 -244
q0 -137 18 -243q8 -49 18 -74q10 -24 18 -24z" />
    <glyph glyph-name="one" unicode="1" horiz-adv-x="212" 
d="M86 0v1h-54v8h54v573q-32 -20 -66 -20v10q46 0 78 32.5t32 78.5h8v-674h54v-8h-54v-1h-52z" />
    <glyph glyph-name="two" unicode="2" horiz-adv-x="202" 
d="M20 0l6 12q5 12 17 37t23 50q71 153 71 426q0 69 -12 116q-10 42 -23 45h-4q-20 0 -35.5 -31t-15.5 -73q0 -15 4 -39q4 -11 6 -12v1q4 7 13 12q12 5 25 0.5t19 -16.5q6 -13 2 -25q-5 -15 -16 -19q-7 -4 -14 -4q-20 0 -30 18q-9 18 -15 42q-4 28 -4 42q0 48 17.5 81
t43.5 33h2h3q31 -3 54 -45q25 -48 25 -122q0 -164 -76 -362q-17 -45 -48 -115h92v54h8v-106h-4v1h-123v-1h-11z" />
    <glyph glyph-name="three" unicode="3" horiz-adv-x="199" 
d="M81 -4q-26 0 -43.5 33t-17.5 81q0 24 4 41v1q4 24 15 42q6 11 19 16q12 5 25 -2q11 -5 16 -19q5 -12 -2 -25q-6 -13 -19 -17q-6 -2 -11 -2q-6 0 -14 3q-9 5 -13 12q0 1 -1 1q-3 -3 -5 -12q-4 -16 -4 -39q0 -42 15 -73t36 -31h2q18 3 33 50q17 53 17 128t-17 128
q-8 28 -20 41q-6 8 -16 9h-18v10h16q19 0 31 44q13 49 13 113t-13 113q-13 44 -28 44q-21 0 -36 -31t-15 -73q0 -23 4 -39q1 -8 5 -12q1 0 1 1q4 7 13 12q12 5 25 0.5t19 -16.5q7 -13 2 -25q-5 -15 -16 -19q-7 -4 -14 -4q-20 0 -30 18q-11 18 -15 42q-4 19 -4 42
q0 48 17.5 81t43.5 33q38 0 65 -50q26 -47 26 -117q0 -69 -26 -118q-16 -32 -42 -45q28 -12 47 -51q28 -54 28 -131q0 -78 -28 -132q-28 -53 -66 -56h-4z" />
    <glyph glyph-name="four" unicode="4" horiz-adv-x="244" 
d="M65 1v8h53l1 193h-99l2 6l148 478v-474h27v47h8v-105h-8v48h-27v-193h54v-8h-159zM33 212h86v280z" />
    <glyph glyph-name="five" unicode="5" horiz-adv-x="202" 
d="M85 -5q-29 -4 -48 35q-17 31 -17 79q0 49 19 84q6 11 19 16q12 5 25 -2q12 -5 16 -18t-2 -26q-9 -19 -30 -19q-7 0 -14 4q-10 5 -14 14q-1 -1 -3 -5q-6 -23 -6 -48q0 -56 23 -87q23 -30 42 -10q13 13 21 46q17 57 17 138t-17 138q-14 52 -35 54q-15 -1 -27 -31
q-12 -33 -12 -81h-10v410h113v-104h-8v52h-95v-283l3 9q14 36 36 38q44 -2 73 -61q28 -59 28 -142q0 -82 -28 -140q-28 -56 -69 -60z" />
    <glyph glyph-name="six" unicode="6" horiz-adv-x="213" 
d="M106 -4q-36 0 -61 61.5t-25 150.5v9q2 159 72 331q25 60 47 104l20 34h12q-67 -108 -91 -276q13 10 26 10q37 0 62 -61.5t25 -150.5t-25 -150.5t-62 -61.5zM106 6q9 0 18 23.5t16 71.5t7 107q0 82 -13 145q-12 57 -28 57q-7 0 -15 -18t-15 -54t-9 -82q-2 -32 -2 -48
q0 -85 14 -146q12 -56 27 -56z" />
    <glyph glyph-name="seven" unicode="7" horiz-adv-x="193" 
d="M96 -1q-32 0 -54 48t-22 118q0 114 38 252h-38v8h40q12 42 31 98q27 71 46 111v2h-92v-53h-8v103h136q-7 -10 -26 -53q-17 -43 -31 -87q-18 -58 -30 -121h46v-8h-47q-22 -118 -22 -254q0 -71 10 -112q10 -42 23 -42v-10z" />
    <glyph glyph-name="eight" unicode="8" horiz-adv-x="213" 
d="M100 -6q-33 5 -56 58q-24 56 -24 131q0 76 24 132q19 40 42 52q-23 11 -38 46q-23 48 -23 118q0 69 23 117q23 51 58 51q36 0 59 -51q23 -48 23 -117q0 -70 -23 -118q-17 -36 -39 -46q25 -13 42 -52q25 -55 25 -132q0 -76 -25 -131q-27 -63 -68 -58zM102 372h4h4
q13 6 24 44q14 47 14 114t-14 114q-13 44 -28 44t-28 -44q-13 -49 -13 -114t13 -114q11 -37 24 -44zM110 6q2 0 4 3q12 10 22 45q15 53 15 129q0 77 -15 128q-12 50 -30 50q-16 0 -30 -50q-14 -53 -14 -128t14 -129q2 -7 4.5 -14t7 -17.5t10.5 -15t12 -1.5z" />
    <glyph glyph-name="nine" unicode="9" horiz-adv-x="213" 
d="M41 -1q68 110 92 276q-15 -10 -27 -10q-36 0 -61 61.5t-25 150.5t25 150.5t61 61.5q37 0 62 -61.5t25 -150.5q0 -1 -0.5 -4t-0.5 -5q-1 -156 -72 -331q-17 -45 -47 -104q-8 -16 -20 -34h-12zM106 275q8 0 16 18t15 54t9 82q1 15 1 48q0 83 -13 146q-12 56 -28 56
q-9 0 -18 -23.5t-16 -71.5t-7 -107q0 -84 14 -145q12 -57 27 -57z" />
    <glyph glyph-name="colon" unicode=":" horiz-adv-x="106" 
d="M54 282q-5 0 -11 2q-13 4 -19 17t-2 25q3 12 16 19q11 5 25 2q13 -5 19 -17q6 -13 2 -26t-16 -19q-8 -3 -14 -3zM54 1q-5 0 -11 2q-13 4 -19 17t-2 25q3 12 16 19q11 6 25 2q13 -5 19 -17q6 -13 2 -26t-16 -19q-7 -3 -14 -3z" />
    <glyph glyph-name="semicolon" unicode=";" horiz-adv-x="106" 
d="M54 282q-5 0 -11 2q-13 4 -19 17t-2 25q3 12 16 19q11 5 25 2q13 -5 19 -17q6 -13 2 -26t-16 -19q-8 -3 -14 -3zM39 -44q-1 0 -1 6q22 11 26 23q3 10 1 18q-8 -2 -12 -2q-13 0 -23 9.5t-10 23.5t9.5 23.5t23.5 9.5q28 0 37 -33q8 -24 -1 -45q-7 -17 -25 -27
q-10 -6 -17 -6q-7 -2 -8 0z" />
    <glyph glyph-name="less" unicode="&#x3c;" horiz-adv-x="352" 
d="M322 175l-301 167h-1v1h1l301 167l10 -49l-213 -118l213 -119z" />
    <glyph glyph-name="equal" unicode="=" horiz-adv-x="288" 
d="M20 368v49h248v-49h-248zM20 249v50h248v-50h-248z" />
    <glyph glyph-name="greater" unicode="&#x3e;" horiz-adv-x="352" 
d="M29 175l-9 49l212 119l-212 118l9 49l302 -167h1v-1h-1z" />
    <glyph glyph-name="question" unicode="?" horiz-adv-x="184" 
d="M70 118l-5 1l-5 2q62 175 62 398q0 70 -13 113q-11 41 -25 44h-3q-21 0 -36 -31t-15 -73q0 -23 4 -40q1 -3 5 -12l1 1q4 7 13 12q12 6 25 1.5t19 -16.5q6 -13 2 -26q-5 -13 -16 -19q-8 -3 -14 -3q-20 0 -30 18q-11 18 -15 42q-4 17 -4 42q0 48 17.5 81t43.5 33h2h3
q31 -3 53 -44q25 -48 25 -123q0 -152 -94 -401zM64 -10q-3 0 -11 2q-13 5 -19 17q-6 11 -2 25q4 13 17 19q11 7 25 2q13 -5 19 -17q6 -13 1.5 -26t-16.5 -19q-6 -3 -14 -3z" />
    <glyph glyph-name="at" unicode="@" horiz-adv-x="488" 
d="M246 -91q-94 0 -160 103t-66 248q0 146 66 247q51 81 123 100q15 4 34 4h1h2q87 -2 153 -104q69 -103 69 -247q0 -142 -51 -225q-24 -38 -54 -38q-6 0 -8 1q-27 1 -48 36t-30 93q-2 8 -4 22q-3 -49 -12 -87q-13 -64 -38 -64h-3q-36 0 -61 61.5t-25 150.5t25 150.5
t61 61.5h3q24 0 38 -65q6 -23 9 -51v116h44v-212q0 -87 11 -140t26 -61q1 0 2.5 -0.5t2.5 -0.5q3 -1 7 -1q25 0 45 33q50 81 50 220t-67 242q-64 97 -147 99q-11 0 -33 -4q-23 -8 -41 -22q-33 -26 -57 -73q-50 -94 -50 -242q0 -141 57.5 -241t139.5 -100v-10q-9 0 -14 1v-1z
M223 8q15 0 29 57q13 55 13 145q0 89 -13 145q-14 57 -29 57q-17 0 -29 -57q-14 -61 -14 -145q0 -86 14 -145q12 -57 29 -57z" />
    <glyph glyph-name="A" unicode="A" horiz-adv-x="307" 
d="M0 0v8h52l109 684l1 6l116 -690h29v-8h-112v8h31l-36 214h-94l-35 -214h51v-8h-112zM97 231h91l-47 275z" />
    <glyph glyph-name="B" unicode="B" horiz-adv-x="332" 
d="M21 0v8h52v671h-53v8h142q69 0 109.5 -48.5t40.5 -121.5q0 -62 -30.5 -108t-84.5 -58q53 -14 84 -65.5t31 -115.5q0 -69 -35.5 -117t-97.5 -53h-158zM125 356h7q41 2 66.5 14t37 37t14.5 48t3 62v18q0 32 -0.5 47t-7 37t-19.5 32.5t-38 18.5t-63 9v-323zM125 9
q35 1 59.5 10t38 21.5t20.5 36t8.5 43t1.5 50.5q0 82 -6 104q-17 68 -108 74h-6h-8v-339z" />
    <glyph glyph-name="C" unicode="C" horiz-adv-x="273" 
d="M168 -1q-45 -8 -84 45q-34 46 -54 125q-20 81 -20 175q0 143 42.5 244t103.5 103h1q13 0 24 -5t25 -16t20 -14q3 -3 6 -3q7 0 9 13q2 15 1 20h10v-206h-8q-1 84 -25 143t-58 59q-11 0 -20.5 -4.5t-16.5 -13t-13 -18t-10.5 -24t-7.5 -25t-5.5 -26.5t-4 -24.5t-3.5 -23
t-2 -17.5q-17 -146 -3 -291q0 -3 1.5 -19.5t3 -27t4 -29.5t5.5 -32t7.5 -30t11 -28t14 -22t18 -16t22.5 -5q35 0 59 59t24 144h8v-209h-10v23q-2 8 -5.5 11t-9 0t-10 -6.5t-10.5 -8.5t-8 -7q-12 -9 -32 -13z" />
    <glyph glyph-name="D" unicode="D" horiz-adv-x="322" 
d="M22 0v9h51v671h-53v8h142q69 0 109.5 -48.5t40.5 -121.5v-353q-2 -71 -42 -118t-108 -47h-140zM125 9h3q34 1 57.5 10t36.5 21.5t20 34.5t9 41t2 49v353v18q0 39 -2 57.5t-13 42t-38.5 33.5t-74.5 11v-671z" />
    <glyph glyph-name="E" unicode="E" horiz-adv-x="278" 
d="M21 0v8h51l1 672h-53v8h237v-79h-7q0 27 -18 47t-44 24h-63l-1 -324h13q26 3 44 23t18 47h7v-149h-7q0 27 -18 47t-44 24h-13v-340h64q27 4 44.5 24t17.5 47h8v-79h-237z" />
    <glyph glyph-name="F" unicode="F" horiz-adv-x="277" 
d="M22 0v9h51v671h-53v8h237v-79h-7q0 27 -18 47t-44 24h-63v-324h12q26 4 44 24t18 47h8v-149h-8q0 27 -18 47t-44 23h-12v-339h53v-9h-156z" />
    <glyph glyph-name="G" unicode="G" horiz-adv-x="295" 
d="M243 0v14q2 37 -10 37q-11 0 -24 -18l-8 -10q-8 -10 -13 -14q-26 -19 -57 -6q-43 19 -77 95q-44 103 -44 247q0 143 42.5 244t103.5 102h1q13 0 23.5 -4.5t26.5 -16.5t19 -14q4 -2 6 -2q7 0 9 12q2 15 1 20h10v-205h-8q-1 84 -25 142.5t-58 58.5q-11 0 -20.5 -4
t-16.5 -13t-13 -18t-10.5 -24l-7.5 -25t-6 -26.5t-4 -24.5t-3 -23.5t-2 -17.5q-17 -145 -3 -291q1 -8 2.5 -24t2.5 -24q8 -74 24 -110q8 -17 20 -31q29 -34 53 -15q2 1 6 5t8 10t6.5 11t5 12.5t4 12.5t2.5 14t1.5 13t1 14.5t0.5 13t0.5 13.5t0.5 12v154h-60v8h132l-1 -8h-31
v-296h-10z" />
    <glyph glyph-name="H" unicode="H" 
d="M20 0v8h39v672h-39v8h130v-8h-39v-365h133v365h-39v8h130v-8h-39v-672h39v-8h-130v8h39v299h-133v-299h39v-8h-130z" />
    <glyph glyph-name="I" unicode="I" horiz-adv-x="210" 
d="M40 0v8h39v672h-39v8h130v-8h-39v-672h39v-8h-130z" />
    <glyph glyph-name="J" unicode="J" horiz-adv-x="218" 
d="M68 6q20 -5 30.5 8t12.5 33v633h-43v8h130v-8h-35v-589h-1q0 -15 -3 -28q-4 -17 -15 -33q-11 -14 -26 -22q-27 -15 -66 -7t-50 39q-9 29 13 44q7 5 20 5q16 -1 22 -13t0 -26q0 -1 -2.5 -8.5t-3.5 -11.5q-2 -19 17 -24z" />
    <glyph glyph-name="K" unicode="K" horiz-adv-x="336" 
d="M336 680h-55l-139 -273l153 -399h40v-8h-130v8h38l-132 339v-339h39v-8h-130v8h39v672h-39v8h130v-8h-39v-306l157 306h-62v8h130v-8z" />
    <glyph glyph-name="L" unicode="L" horiz-adv-x="270" 
d="M23 0v8h51v672h-54v8h160v-8h-54v-672h64q27 4 44.5 24t17.5 47h8v-79h-237z" />
    <glyph glyph-name="M" unicode="M" horiz-adv-x="421" 
d="M401 679h-53v-670h30v-9h-112v9h25v637l-99 -634l-111 667h-1v-670h52v-9h-112v9h52v670h-52v8h112v-4l82 -481l75 481v4h112v-8z" />
    <glyph glyph-name="N" unicode="N" horiz-adv-x="321" 
d="M189 688h112v-8h-52v-683l-167 683h-2v-672h52v-8h-112v8h52v672h-52v8h112l109 -451v443h-52v8z" />
    <glyph glyph-name="O" unicode="O" horiz-adv-x="335" 
d="M167 -4q-61 0 -104 101.5t-43 244.5t43 245t104 102t104.5 -102t43.5 -245t-43.5 -244.5t-104.5 -101.5zM167 2q37 0 63 99.5t26 240.5t-26 240.5t-63 99.5t-62.5 -99.5t-25.5 -240.5t25.5 -240.5t62.5 -99.5z" />
    <glyph glyph-name="P" unicode="P" horiz-adv-x="312" 
d="M22 0v8h51v671h-53v9l100 -1h42q69 0 109.5 -48.5t40.5 -120.5q0 -73 -40.5 -121.5t-109.5 -48.5h-37v-340h53v-8h-156zM125 356h3q34 1 58 10t37 22t20 36t8.5 43t1.5 51v18q0 31 -0.5 46t-7 37t-19.5 32.5t-38 18.5t-63 9v-323z" />
    <glyph glyph-name="Q" unicode="Q" horiz-adv-x="337" 
d="M278 -87q-20 0 -35 6q-9 3 -41 22q-32 20 -63 26q-24 3 -61 -14v-1l-4 8l90 45q-60 3 -102 104t-42 242q0 143 43 244.5t104 101.5t104.5 -101.5t43.5 -244.5q0 -126 -34.5 -221.5t-85.5 -118.5l-64 -32h16q41 -3 85 -19q44 -14 67 -14q34 0 40 25h8q-3 -25 -21 -42
q-19 -16 -48 -16zM167 11q37 0 63 99.5t26 240.5t-26 240.5t-63 99.5t-62.5 -99.5t-25.5 -240.5t25.5 -240.5t62.5 -99.5z" />
    <glyph glyph-name="R" unicode="R" horiz-adv-x="363" 
d="M317 -2q-31 0 -54 21q-17 16 -21 53q-3 24 -2 67t0 67q-7 76 -58 116q-24 18 -57 23v-337h53v-8h-156v8h51v670h-53v8h142q69 0 109.5 -48.5t40.5 -120.5q0 -66 -33.5 -113t-91.5 -56q16 -3 28 -9q39 -21 60 -61q19 -40 21 -93q0 -3 0.5 -7.5t0.5 -6.5q0 -12 -0.5 -34.5
t-0.5 -41t1 -34.5q2 -38 22 -49q23 -14 49 9q1 -3 5 -7q-16 -16 -56 -16zM125 355h2q43 1 69.5 13t38.5 37t15 48.5t3 63.5v18q0 31 -0.5 46t-7 37t-19.5 32.5t-38 18.5t-63 9v-323z" />
    <glyph glyph-name="S" unicode="S" horiz-adv-x="263" 
d="M21 0v220h7q2 -29 6 -53q3 -39 18 -75q19 -51 47 -67q1 0 1 -0.5t1 -0.5q22 -18 54 -13.5t48 28.5q14 20 17 45q11 67 -30 144q-20 38 -78.5 106.5t-79.5 110.5q-53 109 15 192q28 34 68.5 43.5t75.5 -19.5q8 -8 13 -10q9 -6 15 2q1 2 2 4.5t1 3.5v28h10v-212
q-2 0 -4 0.5t-4 0.5q0 13 -2 37q-2 26 -7 46q-11 52 -31 83.5t-44 31.5h-1q-30 3 -52.5 -23t-30.5 -59q-16 -67 31 -136q14 -21 67 -87.5t75 -106.5q68 -123 -3 -217q-24 -32 -58.5 -43t-71.5 6q-16 10 -22 17q-19 22 -26 24q-6 2 -11.5 -0.5t-5.5 -9.5v-41h-10z" />
    <glyph glyph-name="T" unicode="T" horiz-adv-x="352" 
d="M111 0v8h39v672h-54q-28 -1 -48.5 -27.5t-20.5 -55.5h-7v91h312v-91h-7q0 29 -20.5 55.5t-48.5 27.5h-54v-672h39v-8h-130z" />
    <glyph glyph-name="U" unicode="U" 
d="M177 0q-48 0 -82.5 34t-34.5 83v563h-40v8h130v-8h-37v-562q0 -44 19 -75.5t45 -31.5q44 0 75.5 31t31.5 75v563h-60v8h131v-8h-61v-563q0 -49 -34 -83t-83 -34z" />
    <glyph glyph-name="V" unicode="V" horiz-adv-x="322" 
d="M163 0l-114 680h-29v8h112v-8h-31l83 -488l78 488h-52v8h112v-8h-52z" />
    <glyph glyph-name="W" unicode="W" horiz-adv-x="451" 
d="M144 1l-114 679h-30v8h112v-8h-30l82 -486l46 291l-33 195h-29v8h112v-8h-31l83 -488l78 488h-51v8h112v-8h-53l-106 -674l-1 -5l-77 458l-45 -294l-10 -63l-15 -96v-5z" />
    <glyph glyph-name="X" unicode="X" 
d="M20 0v9h62l79 293l-97 378h-40v8h131v-8h-39l72 -279l74 279h-58v8h131v-8h-63l-79 -299l96 -372h41v-9h-130v9h37l-71 273l-73 -273h57v-9h-130z" />
    <glyph glyph-name="Y" unicode="Y" horiz-adv-x="320" 
d="M84 0v8h39v345l-90 327h-33v8h112v-8h-27l85 -307l89 307h-51v8h112v-8h-53l-92 -317v-355h40v-8h-131z" />
    <glyph glyph-name="Z" unicode="Z" horiz-adv-x="236" 
d="M20 0l142 679h-59q-26 -4 -44.5 -29.5t-18.5 -53.5h-7v91h183l-142 -679h66q1 0 2.5 0.5t2.5 0.5q24 7 40.5 31t16.5 50h7v-90h-189z" />
    <glyph glyph-name="bracketleft" unicode="[" horiz-adv-x="172" 
d="M20 -9v706h132v-8h-82v-690h82v-8h-132z" />
    <glyph glyph-name="backslash" unicode="\" horiz-adv-x="258" 
d="M188 -1l-168 689h50l168 -689h-50z" />
    <glyph glyph-name="bracketright" unicode="]" horiz-adv-x="172" 
d="M20 -9v8h82v690h-82v8h132v-706h-132z" />
    <glyph glyph-name="asciicircum" unicode="^" horiz-adv-x="440" 
d="M220 688l200 -210l-58 -7l-142 148l-142 -148l-58 7z" />
    <glyph glyph-name="underscore" unicode="_" horiz-adv-x="391" 
d="M20 0v50h351v-50h-351z" />
    <glyph glyph-name="a" unicode="a" horiz-adv-x="307" 
d="M0 0v8h52l109 684l1 6l116 -690h29v-8h-112v8h31l-36 214h-94l-35 -214h51v-8h-112zM97 231h91l-47 275z" />
    <glyph glyph-name="b" unicode="b" horiz-adv-x="332" 
d="M21 0v8h52v671h-53v8h142q69 0 109.5 -48.5t40.5 -121.5q0 -62 -30.5 -108t-84.5 -58q53 -14 84 -65.5t31 -115.5q0 -69 -35.5 -117t-97.5 -53h-158zM125 356h7q41 2 66.5 14t37 37t14.5 48t3 62v18q0 32 -0.5 47t-7 37t-19.5 32.5t-38 18.5t-63 9v-323zM125 9
q35 1 59.5 10t38 21.5t20.5 36t8.5 43t1.5 50.5q0 82 -6 104q-17 68 -108 74h-6h-8v-339z" />
    <glyph glyph-name="c" unicode="c" horiz-adv-x="273" 
d="M168 -1q-45 -8 -84 45q-34 46 -54 125q-20 81 -20 175q0 143 42.5 244t103.5 103h1q13 0 24 -5t25 -16t20 -14q3 -3 6 -3q7 0 9 13q2 15 1 20h10v-206h-8q-1 84 -25 143t-58 59q-11 0 -20.5 -4.5t-16.5 -13t-13 -18t-10.5 -24t-7.5 -25t-5.5 -26.5t-4 -24.5t-3.5 -23
t-2 -17.5q-17 -146 -3 -291q0 -3 1.5 -19.5t3 -27t4 -29.5t5.5 -32t7.5 -30t11 -28t14 -22t18 -16t22.5 -5q35 0 59 59t24 144h8v-209h-10v23q-2 8 -5.5 11t-9 0t-10 -6.5t-10.5 -8.5t-8 -7q-12 -9 -32 -13z" />
    <glyph glyph-name="d" unicode="d" horiz-adv-x="322" 
d="M22 0v9h51v671h-53v8h142q69 0 109.5 -48.5t40.5 -121.5v-353q-2 -71 -42 -118t-108 -47h-140zM125 9h3q34 1 57.5 10t36.5 21.5t20 34.5t9 41t2 49v353v18q0 39 -2 57.5t-13 42t-38.5 33.5t-74.5 11v-671z" />
    <glyph glyph-name="e" unicode="e" horiz-adv-x="278" 
d="M21 0v8h51l1 672h-53v8h237v-79h-7q0 27 -18 47t-44 24h-63l-1 -324h13q26 3 44 23t18 47h7v-149h-7q0 27 -18 47t-44 24h-13v-340h64q27 4 44.5 24t17.5 47h8v-79h-237z" />
    <glyph glyph-name="f" unicode="f" horiz-adv-x="277" 
d="M22 0v9h51v671h-53v8h237v-79h-7q0 27 -18 47t-44 24h-63v-324h12q26 4 44 24t18 47h8v-149h-8q0 27 -18 47t-44 23h-12v-339h53v-9h-156z" />
    <glyph glyph-name="g" unicode="g" horiz-adv-x="295" 
d="M243 0v14q2 37 -10 37q-11 0 -24 -18l-8 -10q-8 -10 -13 -14q-26 -19 -57 -6q-43 19 -77 95q-44 103 -44 247q0 143 42.5 244t103.5 102h1q13 0 23.5 -4.5t26.5 -16.5t19 -14q4 -2 6 -2q7 0 9 12q2 15 1 20h10v-205h-8q-1 84 -25 142.5t-58 58.5q-11 0 -20.5 -4
t-16.5 -13t-13 -18t-10.5 -24l-7.5 -25t-6 -26.5t-4 -24.5t-3 -23.5t-2 -17.5q-17 -145 -3 -291q1 -8 2.5 -24t2.5 -24q8 -74 24 -110q8 -17 20 -31q29 -34 53 -15q2 1 6 5t8 10t6.5 11t5 12.5t4 12.5t2.5 14t1.5 13t1 14.5t0.5 13t0.5 13.5t0.5 12v154h-60v8h132l-1 -8h-31
v-296h-10z" />
    <glyph glyph-name="h" unicode="h" 
d="M20 0v8h39v672h-39v8h130v-8h-39v-365h133v365h-39v8h130v-8h-39v-672h39v-8h-130v8h39v299h-133v-299h39v-8h-130z" />
    <glyph glyph-name="i" unicode="i" horiz-adv-x="210" 
d="M40 0v8h39v672h-39v8h130v-8h-39v-672h39v-8h-130z" />
    <glyph glyph-name="j" unicode="j" horiz-adv-x="218" 
d="M68 6q20 -5 30.5 8t12.5 33v633h-43v8h130v-8h-35v-589h-1q0 -15 -3 -28q-4 -17 -15 -33q-11 -14 -26 -22q-27 -15 -66 -7t-50 39q-9 29 13 44q7 5 20 5q16 -1 22 -13t0 -26q0 -1 -2.5 -8.5t-3.5 -11.5q-2 -19 17 -24z" />
    <glyph glyph-name="k" unicode="k" horiz-adv-x="336" 
d="M336 680h-55l-139 -273l153 -399h40v-8h-130v8h38l-132 339v-339h39v-8h-130v8h39v672h-39v8h130v-8h-39v-306l157 306h-62v8h130v-8z" />
    <glyph glyph-name="l" unicode="l" horiz-adv-x="270" 
d="M23 0v8h51v672h-54v8h160v-8h-54v-672h64q27 4 44.5 24t17.5 47h8v-79h-237z" />
    <glyph glyph-name="m" unicode="m" horiz-adv-x="421" 
d="M401 679h-53v-670h30v-9h-112v9h25v637l-99 -634l-111 667h-1v-670h52v-9h-112v9h52v670h-52v8h112v-4l82 -481l75 481v4h112v-8z" />
    <glyph glyph-name="n" unicode="n" horiz-adv-x="321" 
d="M189 688h112v-8h-52v-683l-167 683h-2v-672h52v-8h-112v8h52v672h-52v8h112l109 -451v443h-52v8z" />
    <glyph glyph-name="o" unicode="o" horiz-adv-x="335" 
d="M167 -4q-61 0 -104 101.5t-43 244.5t43 245t104 102t104.5 -102t43.5 -245t-43.5 -244.5t-104.5 -101.5zM167 2q37 0 63 99.5t26 240.5t-26 240.5t-63 99.5t-62.5 -99.5t-25.5 -240.5t25.5 -240.5t62.5 -99.5z" />
    <glyph glyph-name="p" unicode="p" horiz-adv-x="312" 
d="M22 0v8h51v671h-53v9l100 -1h42q69 0 109.5 -48.5t40.5 -120.5q0 -73 -40.5 -121.5t-109.5 -48.5h-37v-340h53v-8h-156zM125 356h3q34 1 58 10t37 22t20 36t8.5 43t1.5 51v18q0 31 -0.5 46t-7 37t-19.5 32.5t-38 18.5t-63 9v-323z" />
    <glyph glyph-name="q" unicode="q" horiz-adv-x="337" 
d="M278 -87q-20 0 -35 6q-9 3 -41 22q-32 20 -63 26q-24 3 -61 -14v-1l-4 8l90 45q-60 3 -102 104t-42 242q0 143 43 244.5t104 101.5t104.5 -101.5t43.5 -244.5q0 -126 -34.5 -221.5t-85.5 -118.5l-64 -32h16q41 -3 85 -19q44 -14 67 -14q34 0 40 25h8q-3 -25 -21 -42
q-19 -16 -48 -16zM167 11q37 0 63 99.5t26 240.5t-26 240.5t-63 99.5t-62.5 -99.5t-25.5 -240.5t25.5 -240.5t62.5 -99.5z" />
    <glyph glyph-name="r" unicode="r" horiz-adv-x="363" 
d="M317 -2q-31 0 -54 21q-17 16 -21 53q-3 24 -2 67t0 67q-7 76 -58 116q-24 18 -57 23v-337h53v-8h-156v8h51v670h-53v8h142q69 0 109.5 -48.5t40.5 -120.5q0 -66 -33.5 -113t-91.5 -56q16 -3 28 -9q39 -21 60 -61q19 -40 21 -93q0 -3 0.5 -7.5t0.5 -6.5q0 -12 -0.5 -34.5
t-0.5 -41t1 -34.5q2 -38 22 -49q23 -14 49 9q1 -3 5 -7q-16 -16 -56 -16zM125 355h2q43 1 69.5 13t38.5 37t15 48.5t3 63.5v18q0 31 -0.5 46t-7 37t-19.5 32.5t-38 18.5t-63 9v-323z" />
    <glyph glyph-name="s" unicode="s" horiz-adv-x="263" 
d="M21 0v220h7q2 -29 6 -53q3 -39 18 -75q19 -51 47 -67q1 0 1 -0.5t1 -0.5q22 -18 54 -13.5t48 28.5q14 20 17 45q11 67 -30 144q-20 38 -78.5 106.5t-79.5 110.5q-53 109 15 192q28 34 68.5 43.5t75.5 -19.5q8 -8 13 -10q9 -6 15 2q1 2 2 4.5t1 3.5v28h10v-212
q-2 0 -4 0.5t-4 0.5q0 13 -2 37q-2 26 -7 46q-11 52 -31 83.5t-44 31.5h-1q-30 3 -52.5 -23t-30.5 -59q-16 -67 31 -136q14 -21 67 -87.5t75 -106.5q68 -123 -3 -217q-24 -32 -58.5 -43t-71.5 6q-16 10 -22 17q-19 22 -26 24q-6 2 -11.5 -0.5t-5.5 -9.5v-41h-10z" />
    <glyph glyph-name="t" unicode="t" horiz-adv-x="352" 
d="M111 0v8h39v672h-54q-28 -1 -48.5 -27.5t-20.5 -55.5h-7v91h312v-91h-7q0 29 -20.5 55.5t-48.5 27.5h-54v-672h39v-8h-130z" />
    <glyph glyph-name="u" unicode="u" 
d="M177 0q-48 0 -82.5 34t-34.5 83v563h-40v8h130v-8h-37v-562q0 -44 19 -75.5t45 -31.5q44 0 75.5 31t31.5 75v563h-60v8h131v-8h-61v-563q0 -49 -34 -83t-83 -34z" />
    <glyph glyph-name="v" unicode="v" horiz-adv-x="322" 
d="M163 0l-114 680h-29v8h112v-8h-31l83 -488l78 488h-52v8h112v-8h-52z" />
    <glyph glyph-name="w" unicode="w" horiz-adv-x="451" 
d="M144 1l-114 679h-30v8h112v-8h-30l82 -486l46 291l-33 195h-29v8h112v-8h-31l83 -488l78 488h-51v8h112v-8h-53l-106 -674l-1 -5l-77 458l-45 -294l-10 -63l-15 -96v-5z" />
    <glyph glyph-name="x" unicode="x" 
d="M20 0v9h62l79 293l-97 378h-40v8h131v-8h-39l72 -279l74 279h-58v8h131v-8h-63l-79 -299l96 -372h41v-9h-130v9h37l-71 273l-73 -273h57v-9h-130z" />
    <glyph glyph-name="y" unicode="y" horiz-adv-x="320" 
d="M84 0v8h39v345l-90 327h-33v8h112v-8h-27l85 -307l89 307h-51v8h112v-8h-53l-92 -317v-355h40v-8h-131z" />
    <glyph glyph-name="z" unicode="z" horiz-adv-x="236" 
d="M20 0l142 679h-59q-26 -4 -44.5 -29.5t-18.5 -53.5h-7v91h183l-142 -679h66q1 0 2.5 0.5t2.5 0.5q24 7 40.5 31t16.5 50h7v-90h-189z" />
    <glyph glyph-name="braceleft" unicode="{" horiz-adv-x="275" 
d="M210 -19q-32 0 -47 17q-13 15 -17 55q-2 24 -1.5 69t-0.5 69q-6 85 -43 122q-31 30 -81 26v5v5q48 -5 81 26q37 37 43 122q1 21 0.5 69t1.5 69q4 40 17 54q14 18 47 18t45 -17l-4 -6q-22 22 -40 9q-16 -11 -18 -50q-1 -17 -0.5 -57t0.5 -56v-15q-2 -55 -17 -95
q-18 -43 -49 -62q-12 -9 -32 -14q20 -5 32 -14q31 -19 49 -62q15 -40 17 -95v-15q0 -16 -0.5 -56.5t0.5 -56.5q2 -39 18 -50q19 -13 40 9l1 -2q2 -3 3 -5q-13 -16 -45 -16z" />
    <glyph glyph-name="bar" unicode="|" horiz-adv-x="90" 
d="M20 -55v794h50v-794h-50z" />
    <glyph glyph-name="braceright" unicode="}" horiz-adv-x="275" 
d="M65 -19q-31 0 -45 16q0 1 1 2.5t2 2.5t1 2q21 -22 40 -9q16 11 18 50q1 16 0.5 56.5t-0.5 56.5v15q2 55 17 95q18 43 49 62q12 9 32 14q-20 5 -32 14q-31 19 -49 62q-15 40 -17 95v15q0 16 0.5 56t-0.5 57q-2 39 -18 50q-18 13 -40 -9l-4 6q14 17 45 17q33 0 47 -18
q13 -14 17 -54q2 -24 1.5 -69t0.5 -69q6 -85 44 -122q31 -31 80 -26v-5v-5q-50 4 -80 -26q-38 -37 -44 -122q-1 -21 -0.5 -69t-1.5 -69q-4 -40 -17 -55q-15 -17 -47 -17z" />
    <glyph glyph-name="asciitilde" unicode="~" horiz-adv-x="444" 
d="M325 286q-6 1 -17 3.5t-16 3.5q-61 14 -100 25q-9 3 -42.5 13.5t-52.5 14.5q-37 10 -56 -3q-20 -15 -9 -43q-2 0 -8 -2q-10 20 5 50q13 32 37 42q22 10 58 2q22 -4 64 -18l65 -18q79 -20 97 -23q39 -6 55 6q19 16 6 43l8 3q10 -19 -1 -51q-14 -34 -34 -44q-22 -10 -59 -4
z" />
    <glyph glyph-name="exclamdown" unicode="&#xa1;" horiz-adv-x="105" 
d="M51 687q5 0 11 -2q13 -4 19 -17q7 -13 2 -25q-3 -12 -16 -19q-11 -6 -25 -2q-13 5 -19 17q-6 13 -2 26t16 19q7 3 14 3zM58 576l19 -576h-49l19 576h11z" />
    <glyph glyph-name="guillemotleft" unicode="&#xab;" horiz-adv-x="579" 
d="M322 175l-301 167h-1v1h1l301 167l10 -49l-213 -118l213 -119zM550 175l-302 167v1l302 167l9 -49l-212 -118l212 -119z" />
    <glyph glyph-name="degree" unicode="&#xb0;" horiz-adv-x="218" 
d="M109 677q-37 0 -63 22.5t-26 54.5t26 54.5t63 22.5t63 -22.5t26 -54.5t-26 -54.5t-63 -22.5zM109 678q22 0 37.5 22.5t15.5 53.5t-15.5 53.5t-37.5 22.5t-38 -22t-16 -54t16 -54t38 -22z" />
    <glyph glyph-name="periodcentered" unicode="&#xb7;" horiz-adv-x="106" 
d="M54 281q-5 0 -11 2q-13 4 -19 17t-2 25q3 12 16 19q11 6 25 2q13 -5 19 -17q6 -13 2 -26t-16 -19q-8 -3 -14 -3z" />
    <glyph glyph-name="guillemotright" unicode="&#xbb;" horiz-adv-x="595" 
d="M29 175l-9 49l212 119l-212 118l9 49l302 -167h1v-1h-1zM273 175l-10 49l213 119l-213 118l10 49l301 -167h1v-1h-1z" />
    <glyph glyph-name="questiondown" unicode="&#xbf;" horiz-adv-x="184" 
d="M110 622q-13 5 -19 17t-1.5 25t16.5 19q6 3 14 3q3 0 11 -2q13 -5 19 -17q5 -14 1 -25q-3 -12 -16 -19q-12 -6 -25 -1zM98 0q-31 3 -53 45q-25 44 -25 122q0 151 94 402l4 -2l5 -2q-61 -179 -61 -398q0 -68 12 -113q11 -40 25 -44h4q20 0 35.5 31t15.5 74q0 15 -4 39
q-4 10 -6 12v-1q-4 -7 -14 -12q-12 -6 -24.5 -1.5t-18.5 17.5q-7 13 -2 25q3 13 16 19q8 3 14 3q21 0 29 -18h1q9 -17 14 -41l1 -1q4 -26 4 -41q0 -49 -17.5 -82t-43.5 -33h-2h-3z" />
    <glyph glyph-name="Agrave" unicode="&#xc0;" horiz-adv-x="307" 
d="M153 735l-70 116h43l70 -116h-43zM0 0v8h52l109 684l1 6l116 -690h29v-8h-112v8h31l-36 214h-94l-35 -214h51v-8h-112zM97 231h91l-47 275z" />
    <glyph glyph-name="Aacute" unicode="&#xc1;" horiz-adv-x="307" 
d="M122 734l70 116h43l-70 -116h-43zM0 0v8h52l109 684l1 6l116 -690h29v-8h-112v8h31l-36 214h-94l-35 -214h51v-8h-112zM97 231h91l-47 275z" />
    <glyph glyph-name="Acircumflex" unicode="&#xc2;" horiz-adv-x="307" 
d="M62 729l-42 5l143 151l1 1v-1l143 -151l-41 -5l-102 107zM0 0v8h52l109 684l1 6l116 -690h29v-8h-112v8h31l-36 214h-94l-35 -214h51v-8h-112zM97 231h91l-47 275z" />
    <glyph glyph-name="Atilde" unicode="&#xc3;" horiz-adv-x="307" 
d="M217 729l-19 6q-38 14 -58 22q-52 23 -55 24q-21 8 -32 -3t-5 -36q-2 0 -4 -2q-6 16 2 43q8 28 21 36q13 7 34 1q4 -1 37 -15q12 -6 38 -16q42 -16 56 -20q21 -6 31 5q12 13 4 37q2 0 4 2q6 -14 0 -43q-8 -29 -20 -37q-11 -8 -34 -4zM0 0v8h52l109 684l1 6l116 -690h29
v-8h-112v8h31l-36 214h-94l-35 -214h51v-8h-112zM97 231h91l-47 275z" />
    <glyph glyph-name="Adieresis" unicode="&#xc4;" horiz-adv-x="307" 
d="M103 728q-7 0 -11 2q-13 5 -19 17q-5 11 -2 25q5 13 17 19q10 6 25 1q13 -5 19 -17t1.5 -25t-16.5 -19q-6 -3 -14 -3zM212 728q-7 0 -11 2q-13 5 -19 17q-6 11 -2 25q5 13 17 19q10 6 25 1q13 -5 19 -17t1.5 -25t-16.5 -19q-6 -3 -14 -3zM0 0v8h52l109 684l1 6l116 -690
h29v-8h-112v8h31l-36 214h-94l-35 -214h51v-8h-112zM97 231h91l-47 275z" />
    <glyph glyph-name="Aring" unicode="&#xc5;" horiz-adv-x="307" 
d="M166 728q-37 0 -63 22.5t-26 54.5t26 54.5t63 22.5t63 -22.5t26 -54.5t-26 -54.5t-63 -22.5zM166 729q22 0 37.5 22.5t15.5 53.5t-15.5 53.5t-37.5 22.5t-38 -22t-16 -54t16 -54t38 -22zM0 0v8h52l109 684l1 6l116 -690h29v-8h-112v8h31l-36 214h-94l-35 -214h51v-8h-112
zM97 231h91l-47 275z" />
    <glyph glyph-name="AE" unicode="&#xc6;" horiz-adv-x="441" 
d="M413 79h8v-79h-237v8h51v213h-96l-81 -213h54v-8h-112v8h49l187 527v145h-53v8h237v-79h-7q0 27 -18 47t-44 24h-61l-2 -324h12q26 3 44 23t18 47h7v-149h-7q0 27 -18 47t-44 24h-12l-1 -235v-105h64q27 4 44.5 24t17.5 47zM235 230l1 272l-94 -273z" />
    <glyph glyph-name="Ccedilla" unicode="&#xc7;" horiz-adv-x="273" 
d="M245 209h8v-209h-10v23q-2 8 -5.5 11t-9 0t-10 -6.5t-10.5 -8.5t-8 -7q-12 -9 -32 -13q-4 -1 -11 -1v-36h-8v37q-35 4 -65 45q-34 46 -54 125q-20 81 -20 175q0 143 42.5 244t103.5 103h1q13 0 24 -5t25 -16t20 -14q3 -3 6 -3q7 0 9 13q2 15 1 20h10v-206h-8
q-1 84 -25 143t-58 59q-11 0 -20.5 -4.5t-16.5 -13t-13 -18t-10.5 -24t-7.5 -25t-5.5 -26.5t-4 -24.5t-3.5 -23t-2 -17.5q-17 -146 -3 -291q0 -3 1.5 -19.5t3 -27t4 -29.5t5.5 -32t7.5 -30t11 -28t14 -22t18 -16t22.5 -5q35 0 59 59t24 144zM193 -97q0 24 -12.5 41t-31.5 17
v1q31 0 52 -17.5t21 -41.5t-19.5 -41.5t-47.5 -18.5h-2h-2q-16 0 -27 8q-9 6 -11 18h2q4 -11 11 -16q11 -8 27 -8q17 2 28.5 18.5t11.5 39.5z" />
    <glyph glyph-name="Egrave" unicode="&#xc8;" horiz-adv-x="278" 
d="M141 735l-70 116h43l70 -116h-43zM21 0v8h51l1 672h-53v8h237v-79h-7q0 27 -18 47t-44 24h-63l-1 -324h13q26 3 44 23t18 47h7v-149h-7q0 27 -18 47t-44 24h-13v-340h64q27 4 44.5 24t17.5 47h8v-79h-237z" />
    <glyph glyph-name="Eacute" unicode="&#xc9;" horiz-adv-x="278" 
d="M96 734l70 116h43l-70 -116h-43zM21 0v8h51l1 672h-53v8h237v-79h-7q0 27 -18 47t-44 24h-63l-1 -324h13q26 3 44 23t18 47h7v-149h-7q0 27 -18 47t-44 24h-13v-340h64q27 4 44.5 24t17.5 47h8v-79h-237z" />
    <glyph glyph-name="Ecircumflex" unicode="&#xca;" horiz-adv-x="278" 
d="M49 729l-42 5l143 151l1 1v-1l143 -151l-41 -5l-102 107zM21 0v8h51l1 672h-53v8h237v-79h-7q0 27 -18 47t-44 24h-63l-1 -324h13q26 3 44 23t18 47h7v-149h-7q0 27 -18 47t-44 24h-13v-340h64q27 4 44.5 24t17.5 47h8v-79h-237z" />
    <glyph glyph-name="Edieresis" unicode="&#xcb;" horiz-adv-x="278" 
d="M103 728q-7 0 -11 2q-13 5 -19 17q-5 11 -2 25q5 13 17 19q10 6 25 1q13 -5 19 -17t1.5 -25t-16.5 -19q-6 -3 -14 -3zM212 728q-7 0 -11 2q-13 5 -19 17q-6 11 -2 25q5 13 17 19q10 6 25 1q13 -5 19 -17t1.5 -25t-16.5 -19q-6 -3 -14 -3zM21 0v8h51l1 672h-53v8h237v-79
h-7q0 27 -18 47t-44 24h-63l-1 -324h13q26 3 44 23t18 47h7v-149h-7q0 27 -18 47t-44 24h-13v-340h64q27 4 44.5 24t17.5 47h8v-79h-237z" />
    <glyph glyph-name="Igrave" unicode="&#xcc;" horiz-adv-x="210" 
d="M106 735l-70 116h43l70 -116h-43zM40 0v8h39v672h-39v8h130v-8h-39v-672h39v-8h-130z" />
    <glyph glyph-name="Iacute" unicode="&#xcd;" horiz-adv-x="210" 
d="M61 734l70 116h43l-70 -116h-43zM40 0v8h39v672h-39v8h130v-8h-39v-672h39v-8h-130z" />
    <glyph glyph-name="Icircumflex" unicode="&#xce;" horiz-adv-x="210" 
d="M2 729l-42 5l143 151l1 1v-1l143 -151l-41 -5l-102 107zM40 0v8h39v672h-39v8h130v-8h-39v-672h39v-8h-130z" />
    <glyph glyph-name="Idieresis" unicode="&#xcf;" horiz-adv-x="210" 
d="M54 728q-7 0 -11 2q-13 5 -19 17q-6 11 -2 25q5 13 17 19q10 6 25 1q13 -5 19 -17t1.5 -25t-16.5 -19q-6 -3 -14 -3zM163 728q-7 0 -11 2q-13 5 -19 17q-5 11 -2 25q5 13 17 19q10 6 25 1q13 -5 19 -17t1.5 -25t-16.5 -19q-6 -3 -14 -3zM40 0v8h39v672h-39v8h130v-8h-39
v-672h39v-8h-130z" />
    <glyph glyph-name="Eth" unicode="&#xd0;" horiz-adv-x="322" 
d="M162 688q69 0 109.5 -48.5t40.5 -121.5v-353q-2 -71 -42 -118t-108 -47h-140v9h51v308h-68v50h68v313h-53v8h142zM253 518v18q0 39 -2 57.5t-13 42t-38.5 33.5t-74.5 11v-313h96v-50h-96v-308h3q34 1 57.5 10t36.5 21.5t20 34.5t9 41t2 49v353z" />
    <glyph glyph-name="Ntilde" unicode="&#xd1;" horiz-adv-x="321" 
d="M57 742q-2 0 -4 -2q-6 16 2 43q8 28 21 36q13 7 34 1q4 -1 37 -15q12 -6 38 -16q42 -16 56 -20q21 -6 31 5q12 13 4 37q2 0 4 2q6 -14 0 -43q-8 -29 -20 -37q-11 -8 -34 -4l-19 6q-38 14 -58 22q-52 23 -55 24q-21 8 -32 -3t-5 -36zM189 688h112v-8h-52v-683l-167 683h-2
v-672h52v-8h-112v8h52v672h-52v8h112l109 -451v443h-52v8z" />
    <glyph glyph-name="Ograve" unicode="&#xd2;" horiz-adv-x="335" 
d="M169 735l-70 116h43l70 -116h-43zM167 -4q-61 0 -104 101.5t-43 244.5t43 245t104 102t104.5 -102t43.5 -245t-43.5 -244.5t-104.5 -101.5zM167 2q37 0 63 99.5t26 240.5t-26 240.5t-63 99.5t-62.5 -99.5t-25.5 -240.5t25.5 -240.5t62.5 -99.5z" />
    <glyph glyph-name="Oacute" unicode="&#xd3;" horiz-adv-x="335" 
d="M116 734l70 116h43l-70 -116h-43zM167 -4q-61 0 -104 101.5t-43 244.5t43 245t104 102t104.5 -102t43.5 -245t-43.5 -244.5t-104.5 -101.5zM167 2q37 0 63 99.5t26 240.5t-26 240.5t-63 99.5t-62.5 -99.5t-25.5 -240.5t25.5 -240.5t62.5 -99.5z" />
    <glyph glyph-name="Ocircumflex" unicode="&#xd4;" horiz-adv-x="335" 
d="M62 729l-42 5l143 151l1 1v-1l143 -151l-41 -5l-102 107zM167 -4q-61 0 -104 101.5t-43 244.5t43 245t104 102t104.5 -102t43.5 -245t-43.5 -244.5t-104.5 -101.5zM167 2q37 0 63 99.5t26 240.5t-26 240.5t-63 99.5t-62.5 -99.5t-25.5 -240.5t25.5 -240.5t62.5 -99.5z
" />
    <glyph glyph-name="Otilde" unicode="&#xd5;" horiz-adv-x="335" 
d="M219 729l-19 6q-38 14 -58 22q-52 23 -55 24q-21 8 -32 -3t-5 -36q-2 0 -4 -2q-6 16 2 43q8 28 21 36q13 7 34 1q4 -1 37 -15q12 -6 38 -16q42 -16 56 -20q21 -6 31 5q12 13 4 37q2 0 4 2q6 -14 0 -43q-8 -29 -20 -37q-11 -8 -34 -4zM167 -4q-61 0 -104 101.5t-43 244.5
t43 245t104 102t104.5 -102t43.5 -245t-43.5 -244.5t-104.5 -101.5zM167 2q37 0 63 99.5t26 240.5t-26 240.5t-63 99.5t-62.5 -99.5t-25.5 -240.5t25.5 -240.5t62.5 -99.5z" />
    <glyph glyph-name="Odieresis" unicode="&#xd6;" horiz-adv-x="335" 
d="M114 728q-7 0 -11 2q-13 5 -19 17q-6 11 -2 25q5 13 17 19q10 6 25 1q13 -5 19 -17t1.5 -25t-16.5 -19q-6 -3 -14 -3zM223 728q-7 0 -11 2q-13 5 -19 17q-5 11 -2 25q5 13 17 19q10 6 25 1q13 -5 19 -17t1.5 -25t-16.5 -19q-6 -3 -14 -3zM167 -4q-61 0 -104 101.5
t-43 244.5t43 245t104 102t104.5 -102t43.5 -245t-43.5 -244.5t-104.5 -101.5zM167 2q37 0 63 99.5t26 240.5t-26 240.5t-63 99.5t-62.5 -99.5t-25.5 -240.5t25.5 -240.5t62.5 -99.5z" />
    <glyph glyph-name="multiply" unicode="&#xd7;" horiz-adv-x="251" 
d="M55 237l-35 35l70 71l-70 70l35 35l70 -70l70 70l35 -35l-70 -70l71 -70l-36 -35l-70 70z" />
    <glyph glyph-name="Oslash" unicode="&#xd8;" horiz-adv-x="335" 
d="M262 609q53 -106 53 -267q0 -143 -43.5 -244.5t-104.5 -101.5q-26 0 -50 21l-4 -17h-50l16 65q-59 103 -59 277q0 143 43 245t104 102q29 0 58 -27l6 26h50zM79 342q0 -112 18 -205l119 489q-22 56 -49 56q-37 0 -62.5 -99.5t-25.5 -240.5zM167 2q37 0 63 99.5t26 240.5
q0 103 -14 185l-118 -482q21 -43 43 -43z" />
    <glyph glyph-name="Ugrave" unicode="&#xd9;" 
d="M192 735l-70 116h43l70 -116h-43zM177 0q-48 0 -82.5 34t-34.5 83v563h-40v8h130v-8h-37v-562q0 -44 19 -75.5t45 -31.5q44 0 75.5 31t31.5 75v563h-60v8h131v-8h-61v-563q0 -49 -34 -83t-83 -34z" />
    <glyph glyph-name="Uacute" unicode="&#xda;" 
d="M153 736l70 116h43l-70 -116h-43zM177 0q-48 0 -82.5 34t-34.5 83v563h-40v8h130v-8h-37v-562q0 -44 19 -75.5t45 -31.5q44 0 75.5 31t31.5 75v563h-60v8h131v-8h-61v-563q0 -49 -34 -83t-83 -34z" />
    <glyph glyph-name="Ucircumflex" unicode="&#xdb;" 
d="M85 729l-42 5l143 151l1 1v-1l143 -151l-41 -5l-102 107zM177 0q-48 0 -82.5 34t-34.5 83v563h-40v8h130v-8h-37v-562q0 -44 19 -75.5t45 -31.5q44 0 75.5 31t31.5 75v563h-60v8h131v-8h-61v-563q0 -49 -34 -83t-83 -34z" />
    <glyph glyph-name="Udieresis" unicode="&#xdc;" 
d="M133 728q-7 0 -11 2q-13 5 -19 17q-5 11 -2 25q5 13 17 19q10 6 25 1q13 -5 19 -17t1.5 -25t-16.5 -19q-6 -3 -14 -3zM242 728q-7 0 -11 2q-13 5 -19 17q-6 11 -2 25q5 13 17 19q10 6 25 1q13 -5 19 -17t1.5 -25t-16.5 -19q-6 -3 -14 -3zM177 0q-48 0 -82.5 34t-34.5 83
v563h-40v8h130v-8h-37v-562q0 -44 19 -75.5t45 -31.5q44 0 75.5 31t31.5 75v563h-60v8h131v-8h-61v-563q0 -49 -34 -83t-83 -34z" />
    <glyph glyph-name="Yacute" unicode="&#xdd;" horiz-adv-x="320" 
d="M128 734l70 116h43l-70 -116h-43zM84 0v8h39v345l-90 327h-33v8h112v-8h-27l85 -307l89 307h-51v8h112v-8h-53l-92 -317v-355h40v-8h-131z" />
    <glyph glyph-name="Thorn" unicode="&#xde;" horiz-adv-x="312" 
d="M23 -8v8h51l-1 812h-53v8h156v-8h-51v-133h38q69 0 109.5 -48.5t40.5 -120.5q0 -73 -40.5 -121.5t-109.5 -48.5h-37v-340h53v-8h-156zM126 348h3q34 1 58 10t37 22t20 36t8.5 43t1.5 51v18q0 31 -0.5 46t-7 37t-19.5 32.5t-38 18.5t-63 9v-323z" />
    <glyph glyph-name="germandbls" unicode="&#xdf;" horiz-adv-x="255" 
d="M50 1v534q0 70 26 117q27 50 67 50q39 0 66 -50q26 -47 26 -117q0 -59 -20 -105t-50 -60q26 -13 44 -51q26 -54 26 -131t-26 -131q-26 -56 -66 -56v1v10q14 0 26 49q13 49 13 127q0 52 -6.5 94t-15.5 62.5t-17 20.5h-24v10h24q14 0 26 45q13 45 13 114q0 70 -13 113
q-11 44 -26 44q-16 0 -27 -44q-13 -43 -13 -113v-533h-53z" />
    <glyph glyph-name="agrave" unicode="&#xe0;" horiz-adv-x="307" 
d="M162 735l-70 116h43l70 -116h-43zM0 0v8h52l109 684l1 6l116 -690h29v-8h-112v8h31l-36 214h-94l-35 -214h51v-8h-112zM97 231h91l-47 275z" />
    <glyph glyph-name="aacute" unicode="&#xe1;" horiz-adv-x="307" 
d="M119 734l70 116h43l-70 -116h-43zM0 0v8h52l109 684l1 6l116 -690h29v-8h-112v8h31l-36 214h-94l-35 -214h51v-8h-112zM97 231h91l-47 275z" />
    <glyph glyph-name="acircumflex" unicode="&#xe2;" horiz-adv-x="307" 
d="M62 729l-42 5l143 151l1 1v-1l143 -151l-41 -5l-102 107zM0 0v8h52l109 684l1 6l116 -690h29v-8h-112v8h31l-36 214h-94l-35 -214h51v-8h-112zM97 231h91l-47 275z" />
    <glyph glyph-name="atilde" unicode="&#xe3;" horiz-adv-x="307" 
d="M224 729l-19 6q-38 14 -58 22q-52 23 -55 24q-21 8 -32 -3t-5 -36q-2 0 -4 -2q-6 16 2 43q8 28 21 36q13 7 34 1q4 -1 37 -15q12 -6 38 -16q42 -16 56 -20q21 -6 31 5q12 13 4 37q2 0 4 2q6 -14 0 -43q-8 -29 -20 -37q-11 -8 -34 -4zM0 0v8h52l109 684l1 6l116 -690h29
v-8h-112v8h31l-36 214h-94l-35 -214h51v-8h-112zM97 231h91l-47 275z" />
    <glyph glyph-name="adieresis" unicode="&#xe4;" horiz-adv-x="307" 
d="M101 728q-7 0 -11 2q-13 5 -19 17q-5 11 -2 25q5 13 17 19q10 6 25 1q13 -5 19 -17t1.5 -25t-16.5 -19q-6 -3 -14 -3zM210 728q-7 0 -11 2q-13 5 -19 17q-6 11 -2 25q5 13 17 19q10 6 25 1q13 -5 19 -17t1.5 -25t-16.5 -19q-6 -3 -14 -3zM0 0v8h52l109 684l1 6l116 -690
h29v-8h-112v8h31l-36 214h-94l-35 -214h51v-8h-112zM97 231h91l-47 275z" />
    <glyph glyph-name="aring" unicode="&#xe5;" horiz-adv-x="307" 
d="M278 8h29v-8h-112v8h31l-36 214h-94l-35 -214h51v-8h-112v8h52l109 684l1 4q-37 0 -63 22.5t-26 54.5t26 54.5t63 22.5t63 -22.5t26 -54.5t-26 -54.5t-63 -22.5zM108 773q0 -32 16 -54t38 -22t37.5 22.5t15.5 53.5t-15.5 53.5t-37.5 22.5t-38 -22t-16 -54zM97 231h91
l-47 275z" />
    <glyph glyph-name="ae" unicode="&#xe6;" horiz-adv-x="441" 
d="M413 79h8v-79h-237v8h51v213h-96l-81 -213h54v-8h-112v8h49l187 527v145h-53v8h237v-79h-7q0 27 -18 47t-44 24h-61l-2 -324h12q26 3 44 23t18 47h7v-149h-7q0 27 -18 47t-44 24h-12l-1 -235v-105h64q27 4 44.5 24t17.5 47zM235 230l1 272l-94 -273z" />
    <glyph glyph-name="ccedilla" unicode="&#xe7;" horiz-adv-x="273" 
d="M245 209h8v-209h-10v23q-2 8 -5.5 11t-9 0t-10 -6.5t-10.5 -8.5t-8 -7q-12 -9 -32 -13l-7 -1v-36h-8v36q-37 3 -69 46q-34 46 -54 125q-20 81 -20 175q0 143 42.5 244t103.5 103h1q13 0 24 -5t25 -16t20 -14q3 -3 6 -3q7 0 9 13q2 15 1 20h10v-206h-8q-1 84 -25 143
t-58 59q-11 0 -20.5 -4.5t-16.5 -13t-13 -18t-10.5 -24t-7.5 -25t-5.5 -26.5t-4 -24.5t-3.5 -23t-2 -17.5q-17 -146 -3 -291q0 -3 1.5 -19.5t3 -27t4 -29.5t5.5 -32t7.5 -30t11 -28t14 -22t18 -16t22.5 -5q35 0 59 59t24 144zM197 -97q0 24 -12.5 41t-31.5 17v1
q31 0 52 -17.5t21 -41.5t-19.5 -41.5t-47.5 -18.5h-2h-2q-16 0 -27 8q-9 6 -11 18h2q4 -11 11 -16q11 -8 27 -8q17 2 28.5 18.5t11.5 39.5z" />
    <glyph glyph-name="egrave" unicode="&#xe8;" horiz-adv-x="278" 
d="M138 735l-70 116h43l70 -116h-43zM21 0v8h51l1 672h-53v8h237v-79h-7q0 27 -18 47t-44 24h-63l-1 -324h13q26 3 44 23t18 47h7v-149h-7q0 27 -18 47t-44 24h-13v-340h64q27 4 44.5 24t17.5 47h8v-79h-237z" />
    <glyph glyph-name="eacute" unicode="&#xe9;" horiz-adv-x="278" 
d="M90 734l70 116h43l-70 -116h-43zM21 0v8h51l1 672h-53v8h237v-79h-7q0 27 -18 47t-44 24h-63l-1 -324h13q26 3 44 23t18 47h7v-149h-7q0 27 -18 47t-44 24h-13v-340h64q27 4 44.5 24t17.5 47h8v-79h-237z" />
    <glyph glyph-name="ecircumflex" unicode="&#xea;" horiz-adv-x="278" 
d="M41 729l-42 5l143 151l1 1v-1l143 -151l-41 -5l-102 107zM21 0v8h51l1 672h-53v8h237v-79h-7q0 27 -18 47t-44 24h-63l-1 -324h13q26 3 44 23t18 47h7v-149h-7q0 27 -18 47t-44 24h-13v-340h64q27 4 44.5 24t17.5 47h8v-79h-237z" />
    <glyph glyph-name="edieresis" unicode="&#xeb;" horiz-adv-x="278" 
d="M89 728q-7 0 -11 2q-13 5 -19 17q-5 11 -2 25q5 13 17 19q10 6 25 1q13 -5 19 -17t1.5 -25t-16.5 -19q-6 -3 -14 -3zM198 728q-7 0 -11 2q-13 5 -19 17q-6 11 -2 25q5 13 17 19q10 6 25 1q13 -5 19 -17t1.5 -25t-16.5 -19q-6 -3 -14 -3zM21 0v8h51l1 672h-53v8h237v-79
h-7q0 27 -18 47t-44 24h-63l-1 -324h13q26 3 44 23t18 47h7v-149h-7q0 27 -18 47t-44 24h-13v-340h64q27 4 44.5 24t17.5 47h8v-79h-237z" />
    <glyph glyph-name="igrave" unicode="&#xec;" horiz-adv-x="210" 
d="M106 735l-70 116h43l70 -116h-43zM40 0v8h39v672h-39v8h130v-8h-39v-672h39v-8h-130z" />
    <glyph glyph-name="iacute" unicode="&#xed;" horiz-adv-x="210" 
d="M61 734l70 116h43l-70 -116h-43zM40 0v8h39v672h-39v8h130v-8h-39v-672h39v-8h-130z" />
    <glyph glyph-name="icircumflex" unicode="&#xee;" horiz-adv-x="210" 
d="M2 729l-42 5l143 151l1 1v-1l143 -151l-41 -5l-102 107zM40 0v8h39v672h-39v8h130v-8h-39v-672h39v-8h-130z" />
    <glyph glyph-name="idieresis" unicode="&#xef;" horiz-adv-x="210" 
d="M54 728q-7 0 -11 2q-13 5 -19 17q-6 11 -2 25q5 13 17 19q10 6 25 1q13 -5 19 -17t1.5 -25t-16.5 -19q-6 -3 -14 -3zM163 728q-7 0 -11 2q-13 5 -19 17q-5 11 -2 25q5 13 17 19q10 6 25 1q13 -5 19 -17t1.5 -25t-16.5 -19q-6 -3 -14 -3zM40 0v8h39v672h-39v8h130v-8h-39
v-672h39v-8h-130z" />
    <glyph glyph-name="eth" unicode="&#xf0;" horiz-adv-x="322" 
d="M162 688q69 0 109.5 -48.5t40.5 -121.5v-353q-2 -71 -42 -118t-108 -47h-140v9h51v308h-68v50h68v313h-53v8h142zM253 518v18q0 39 -2 57.5t-13 42t-38.5 33.5t-74.5 11v-313h96v-50h-96v-308h3q34 1 57.5 10t36.5 21.5t20 34.5t9 41t2 49v353z" />
    <glyph glyph-name="ntilde" unicode="&#xf1;" horiz-adv-x="321" 
d="M67 742q-2 0 -4 -2q-6 16 2 43q8 28 21 36q13 7 34 1q4 -1 37 -15q12 -6 38 -16q42 -16 56 -20q21 -6 31 5q12 13 4 37q2 0 4 2q6 -14 0 -43q-8 -29 -20 -37q-11 -8 -34 -4l-19 6q-38 14 -58 22q-52 23 -55 24q-21 8 -32 -3t-5 -36zM189 688h112v-8h-52v-683l-167 683h-2
v-672h52v-8h-112v8h52v672h-52v8h112l109 -451v443h-52v8z" />
    <glyph glyph-name="ograve" unicode="&#xf2;" horiz-adv-x="335" 
d="M181 735l-70 116h43l70 -116h-43zM167 -4q-61 0 -104 101.5t-43 244.5t43 245t104 102t104.5 -102t43.5 -245t-43.5 -244.5t-104.5 -101.5zM167 2q37 0 63 99.5t26 240.5t-26 240.5t-63 99.5t-62.5 -99.5t-25.5 -240.5t25.5 -240.5t62.5 -99.5z" />
    <glyph glyph-name="oacute" unicode="&#xf3;" horiz-adv-x="335" 
d="M132 734l70 116h43l-70 -116h-43zM167 -4q-61 0 -104 101.5t-43 244.5t43 245t104 102t104.5 -102t43.5 -245t-43.5 -244.5t-104.5 -101.5zM167 2q37 0 63 99.5t26 240.5t-26 240.5t-63 99.5t-62.5 -99.5t-25.5 -240.5t25.5 -240.5t62.5 -99.5z" />
    <glyph glyph-name="ocircumflex" unicode="&#xf4;" horiz-adv-x="335" 
d="M62 729l-42 5l143 151l1 1v-1l143 -151l-41 -5l-102 107zM167 -4q-61 0 -104 101.5t-43 244.5t43 245t104 102t104.5 -102t43.5 -245t-43.5 -244.5t-104.5 -101.5zM167 2q37 0 63 99.5t26 240.5t-26 240.5t-63 99.5t-62.5 -99.5t-25.5 -240.5t25.5 -240.5t62.5 -99.5z
" />
    <glyph glyph-name="otilde" unicode="&#xf5;" horiz-adv-x="335" 
d="M214 729l-19 6q-38 14 -58 22q-52 23 -55 24q-21 8 -32 -3t-5 -36q-2 0 -4 -2q-6 16 2 43q8 28 21 36q13 7 34 1q4 -1 37 -15q12 -6 38 -16q42 -16 56 -20q21 -6 31 5q12 13 4 37q2 0 4 2q6 -14 0 -43q-8 -29 -20 -37q-11 -8 -34 -4zM167 -4q-61 0 -104 101.5t-43 244.5
t43 245t104 102t104.5 -102t43.5 -245t-43.5 -244.5t-104.5 -101.5zM167 2q37 0 63 99.5t26 240.5t-26 240.5t-63 99.5t-62.5 -99.5t-25.5 -240.5t25.5 -240.5t62.5 -99.5z" />
    <glyph glyph-name="odieresis" unicode="&#xf6;" horiz-adv-x="335" 
d="M106 728q-7 0 -11 2q-13 5 -19 17q-6 11 -2 25q5 13 17 19q10 6 25 1q13 -5 19 -17t1.5 -25t-16.5 -19q-6 -3 -14 -3zM215 728q-7 0 -11 2q-13 5 -19 17q-5 11 -2 25q5 13 17 19q10 6 25 1q13 -5 19 -17t1.5 -25t-16.5 -19q-6 -3 -14 -3zM167 -4q-61 0 -104 101.5
t-43 244.5t43 245t104 102t104.5 -102t43.5 -245t-43.5 -244.5t-104.5 -101.5zM167 2q37 0 63 99.5t26 240.5t-26 240.5t-63 99.5t-62.5 -99.5t-25.5 -240.5t25.5 -240.5t62.5 -99.5z" />
    <glyph glyph-name="divide" unicode="&#xf7;" horiz-adv-x="288" 
d="M20 318v49h248v-49h-248z" />
    <glyph glyph-name="oslash" unicode="&#xf8;" horiz-adv-x="335" 
d="M258 617q57 -104 57 -275q0 -143 -43.5 -244.5t-104.5 -101.5q-28 0 -55 25l-5 -21h-50l18 73q-55 102 -55 269q0 143 43 245t104 102q27 0 53 -23l5 22h50zM79 342q0 -99 15 -191l118 484q-20 47 -45 47q-37 0 -62.5 -99.5t-25.5 -240.5zM167 2q37 0 63 99.5t26 240.5
q0 112 -17 199l-119 -487q22 -52 47 -52z" />
    <glyph glyph-name="ugrave" unicode="&#xf9;" 
d="M194 735l-70 116h43l70 -116h-43zM177 0q-48 0 -82.5 34t-34.5 83v563h-40v8h130v-8h-37v-562q0 -44 19 -75.5t45 -31.5q44 0 75.5 31t31.5 75v563h-60v8h131v-8h-61v-563q0 -49 -34 -83t-83 -34z" />
    <glyph glyph-name="uacute" unicode="&#xfa;" 
d="M171 734l70 116h43l-70 -116h-43zM177 0q-48 0 -82.5 34t-34.5 83v563h-40v8h130v-8h-37v-562q0 -44 19 -75.5t45 -31.5q44 0 75.5 31t31.5 75v563h-60v8h131v-8h-61v-563q0 -49 -34 -83t-83 -34z" />
    <glyph glyph-name="ucircumflex" unicode="&#xfb;" 
d="M87 729l-42 5l143 151l1 1v-1l143 -151l-41 -5l-102 107zM177 0q-48 0 -82.5 34t-34.5 83v563h-40v8h130v-8h-37v-562q0 -44 19 -75.5t45 -31.5q44 0 75.5 31t31.5 75v563h-60v8h131v-8h-61v-563q0 -49 -34 -83t-83 -34z" />
    <glyph glyph-name="udieresis" unicode="&#xfc;" 
d="M129 728q-7 0 -11 2q-13 5 -19 17q-5 11 -2 25q5 13 17 19q10 6 25 1q13 -5 19 -17t1.5 -25t-16.5 -19q-6 -3 -14 -3zM238 728q-7 0 -11 2q-13 5 -19 17q-6 11 -2 25q5 13 17 19q10 6 25 1q13 -5 19 -17t1.5 -25t-16.5 -19q-6 -3 -14 -3zM177 0q-48 0 -82.5 34t-34.5 83
v563h-40v8h130v-8h-37v-562q0 -44 19 -75.5t45 -31.5q44 0 75.5 31t31.5 75v563h-60v8h131v-8h-61v-563q0 -49 -34 -83t-83 -34z" />
    <glyph glyph-name="yacute" unicode="&#xfd;" horiz-adv-x="320" 
d="M137 734l70 116h43l-70 -116h-43zM84 0v8h39v345l-90 327h-33v8h112v-8h-27l85 -307l89 307h-51v8h112v-8h-53l-92 -317v-355h40v-8h-131z" />
    <glyph glyph-name="thorn" unicode="&#xfe;" horiz-adv-x="312" 
d="M23 -8v8h51l-1 812h-53v8h156v-8h-51v-133h38q69 0 109.5 -48.5t40.5 -120.5q0 -73 -40.5 -121.5t-109.5 -48.5h-37v-340h53v-8h-156zM126 348h3q34 1 58 10t37 22t20 36t8.5 43t1.5 51v18q0 31 -0.5 46t-7 37t-19.5 32.5t-38 18.5t-63 9v-323z" />
    <glyph glyph-name="ydieresis" unicode="&#xff;" horiz-adv-x="320" 
d="M101 728q-7 0 -11 2q-13 5 -19 17q-5 11 -2 25q5 13 17 19q10 6 25 1q13 -5 19 -17t1.5 -25t-16.5 -19q-6 -3 -14 -3zM210 728q-7 0 -11 2q-13 5 -19 17q-6 11 -2 25q5 13 17 19q10 6 25 1q13 -5 19 -17t1.5 -25t-16.5 -19q-6 -3 -14 -3zM84 0v8h39v345l-90 327h-33v8
h112v-8h-27l85 -307l89 307h-51v8h112v-8h-53l-92 -317v-355h40v-8h-131z" />
    <glyph glyph-name="Amacron" unicode="&#x100;" horiz-adv-x="307" 
d="M41 735v50h248v-50h-248zM0 0v8h52l109 684l1 6l116 -690h29v-8h-112v8h31l-36 214h-94l-35 -214h51v-8h-112zM97 231h91l-47 275z" />
    <glyph glyph-name="amacron" unicode="&#x101;" horiz-adv-x="307" 
d="M37 735v50h248v-50h-248zM0 0v8h52l109 684l1 6l116 -690h29v-8h-112v8h31l-36 214h-94l-35 -214h51v-8h-112zM97 231h91l-47 275z" />
    <glyph glyph-name="Abreve" unicode="&#x102;" horiz-adv-x="307" 
d="M163 745q-43 0 -73.5 25.5t-30.5 62.5h2q0 -22 30 -37.5t72 -15.5q43 0 73 15.5t30 37.5h2q0 -37 -30.5 -62.5t-74.5 -25.5zM0 0v8h52l109 684l1 6l116 -690h29v-8h-112v8h31l-36 214h-94l-35 -214h51v-8h-112zM97 231h91l-47 275z" />
    <glyph glyph-name="abreve" unicode="&#x103;" horiz-adv-x="307" 
d="M161 745q-43 0 -73.5 25.5t-30.5 62.5h2q0 -22 30 -37.5t72 -15.5q43 0 73 15.5t30 37.5h2q0 -37 -30.5 -62.5t-74.5 -25.5zM0 0v8h52l109 684l1 6l116 -690h29v-8h-112v8h31l-36 214h-94l-35 -214h51v-8h-112zM97 231h91l-47 275z" />
    <glyph glyph-name="Aogonek" unicode="&#x104;" horiz-adv-x="307" 
d="M252 -1q-19 -22 -23 -58q-3 -27 8.5 -49t36.5 -26h28l1 -32q-37 -3 -51 3q-39 14 -46 60q-5 26 3 53.5t28 44.5q2 1 6 5h-48v8h31l-36 214h-94l-35 -214h51v-8h-112v8h52l109 684l1 6l116 -690h29v-8h-54zM97 231h91l-47 275z" />
    <glyph glyph-name="aogonek" unicode="&#x105;" horiz-adv-x="307" 
d="M0 0v8h52l109 684l1 6l116 -690h29v-8h-112v8h31l-36 214h-94l-35 -214h51v-8h-112zM97 231h91l-47 275zM302 -176q-37 -3 -51 3q-39 14 -46 60q-5 26 3 53.5t28 44.5q21 17 28 14q-12 -9 -13 -10q-19 -22 -23 -58q-3 -27 8.5 -49t36.5 -26h28z" />
    <glyph glyph-name="Cacute" unicode="&#x106;" horiz-adv-x="273" 
d="M127 734l70 116h43l-70 -116h-43zM168 -1q-45 -8 -84 45q-34 46 -54 125q-20 81 -20 175q0 143 42.5 244t103.5 103h1q13 0 24 -5t25 -16t20 -14q3 -3 6 -3q7 0 9 13q2 15 1 20h10v-206h-8q-1 84 -25 143t-58 59q-11 0 -20.5 -4.5t-16.5 -13t-13 -18t-10.5 -24t-7.5 -25
t-5.5 -26.5t-4 -24.5t-3.5 -23t-2 -17.5q-17 -146 -3 -291q0 -3 1.5 -19.5t3 -27t4 -29.5t5.5 -32t7.5 -30t11 -28t14 -22t18 -16t22.5 -5q35 0 59 59t24 144h8v-209h-10v23q-2 8 -5.5 11t-9 0t-10 -6.5t-10.5 -8.5t-8 -7q-12 -9 -32 -13z" />
    <glyph glyph-name="cacute" unicode="&#x107;" horiz-adv-x="273" 
d="M130 734l70 116h43l-70 -116h-43zM168 -1q-45 -8 -84 45q-34 46 -54 125q-20 81 -20 175q0 143 42.5 244t103.5 103h1q13 0 24 -5t25 -16t20 -14q3 -3 6 -3q7 0 9 13q2 15 1 20h10v-206h-8q-1 84 -25 143t-58 59q-11 0 -20.5 -4.5t-16.5 -13t-13 -18t-10.5 -24t-7.5 -25
t-5.5 -26.5t-4 -24.5t-3.5 -23t-2 -17.5q-17 -146 -3 -291q0 -3 1.5 -19.5t3 -27t4 -29.5t5.5 -32t7.5 -30t11 -28t14 -22t18 -16t22.5 -5q35 0 59 59t24 144h8v-209h-10v23q-2 8 -5.5 11t-9 0t-10 -6.5t-10.5 -8.5t-8 -7q-12 -9 -32 -13z" />
    <glyph glyph-name="Cdotaccent" unicode="&#x10a;" horiz-adv-x="273" 
d="M163 728q-7 0 -11 2q-13 5 -19 17q-5 11 -2 25q5 13 17 19q10 6 25 1q13 -5 19 -17t1.5 -25t-16.5 -19q-6 -3 -14 -3zM168 -1q-45 -8 -84 45q-34 46 -54 125q-20 81 -20 175q0 143 42.5 244t103.5 103h1q13 0 24 -5t25 -16t20 -14q3 -3 6 -3q7 0 9 13q2 15 1 20h10v-206
h-8q-1 84 -25 143t-58 59q-11 0 -20.5 -4.5t-16.5 -13t-13 -18t-10.5 -24t-7.5 -25t-5.5 -26.5t-4 -24.5t-3.5 -23t-2 -17.5q-17 -146 -3 -291q0 -3 1.5 -19.5t3 -27t4 -29.5t5.5 -32t7.5 -30t11 -28t14 -22t18 -16t22.5 -5q35 0 59 59t24 144h8v-209h-10v23q-2 8 -5.5 11
t-9 0t-10 -6.5t-10.5 -8.5t-8 -7q-12 -9 -32 -13z" />
    <glyph glyph-name="cdotaccent" unicode="&#x10b;" horiz-adv-x="273" 
d="M164 728q-7 0 -11 2q-13 5 -19 17q-6 11 -2 25q5 13 17 19q10 6 25 1q13 -5 19 -17t1.5 -25t-16.5 -19q-6 -3 -14 -3zM168 -1q-45 -8 -84 45q-34 46 -54 125q-20 81 -20 175q0 143 42.5 244t103.5 103h1q13 0 24 -5t25 -16t20 -14q3 -3 6 -3q7 0 9 13q2 15 1 20h10v-206
h-8q-1 84 -25 143t-58 59q-11 0 -20.5 -4.5t-16.5 -13t-13 -18t-10.5 -24t-7.5 -25t-5.5 -26.5t-4 -24.5t-3.5 -23t-2 -17.5q-17 -146 -3 -291q0 -3 1.5 -19.5t3 -27t4 -29.5t5.5 -32t7.5 -30t11 -28t14 -22t18 -16t22.5 -5q35 0 59 59t24 144h8v-209h-10v23q-2 8 -5.5 11
t-9 0t-10 -6.5t-10.5 -8.5t-8 -7q-12 -9 -32 -13z" />
    <glyph glyph-name="Ccaron" unicode="&#x10c;" horiz-adv-x="273" 
d="M163 724l-1 1l-143 151l42 5l102 -107l102 107l41 -5l-143 -151v-1zM168 -1q-45 -8 -84 45q-34 46 -54 125q-20 81 -20 175q0 143 42.5 244t103.5 103h1q13 0 24 -5t25 -16t20 -14q3 -3 6 -3q7 0 9 13q2 15 1 20h10v-206h-8q-1 84 -25 143t-58 59q-11 0 -20.5 -4.5
t-16.5 -13t-13 -18t-10.5 -24t-7.5 -25t-5.5 -26.5t-4 -24.5t-3.5 -23t-2 -17.5q-17 -146 -3 -291q0 -3 1.5 -19.5t3 -27t4 -29.5t5.5 -32t7.5 -30t11 -28t14 -22t18 -16t22.5 -5q35 0 59 59t24 144h8v-209h-10v23q-2 8 -5.5 11t-9 0t-10 -6.5t-10.5 -8.5t-8 -7
q-12 -9 -32 -13z" />
    <glyph glyph-name="ccaron" unicode="&#x10d;" horiz-adv-x="273" 
d="M163 724l-1 1l-143 151l42 5l102 -107l102 107l41 -5l-143 -151v-1zM168 -1q-45 -8 -84 45q-34 46 -54 125q-20 81 -20 175q0 143 42.5 244t103.5 103h1q13 0 24 -5t25 -16t20 -14q3 -3 6 -3q7 0 9 13q2 15 1 20h10v-206h-8q-1 84 -25 143t-58 59q-11 0 -20.5 -4.5
t-16.5 -13t-13 -18t-10.5 -24t-7.5 -25t-5.5 -26.5t-4 -24.5t-3.5 -23t-2 -17.5q-17 -146 -3 -291q0 -3 1.5 -19.5t3 -27t4 -29.5t5.5 -32t7.5 -30t11 -28t14 -22t18 -16t22.5 -5q35 0 59 59t24 144h8v-209h-10v23q-2 8 -5.5 11t-9 0t-10 -6.5t-10.5 -8.5t-8 -7
q-12 -9 -32 -13z" />
    <glyph glyph-name="Dcaron" unicode="&#x10e;" horiz-adv-x="322" 
d="M163 724l-1 1l-143 151l42 5l102 -107l102 107l41 -5l-143 -151v-1zM22 0v9h51v671h-53v8h142q69 0 109.5 -48.5t40.5 -121.5v-353q-2 -71 -42 -118t-108 -47h-140zM125 9h3q34 1 57.5 10t36.5 21.5t20 34.5t9 41t2 49v353v18q0 39 -2 57.5t-13 42t-38.5 33.5t-74.5 11
v-671z" />
    <glyph glyph-name="dcaron" unicode="&#x10f;" horiz-adv-x="322" 
d="M163 724l-1 1l-143 151l42 5l102 -107l102 107l41 -5l-143 -151v-1zM22 0v9h51v671h-53v8h142q69 0 109.5 -48.5t40.5 -121.5v-353q-2 -71 -42 -118t-108 -47h-140zM125 9h3q34 1 57.5 10t36.5 21.5t20 34.5t9 41t2 49v353v18q0 39 -2 57.5t-13 42t-38.5 33.5t-74.5 11
v-671z" />
    <glyph glyph-name="Dcroat" unicode="&#x110;" horiz-adv-x="322" 
d="M162 688q69 0 109.5 -48.5t40.5 -121.5v-353q-2 -71 -42 -118t-108 -47h-140v9h51v308h-68v50h68v313h-53v8h142zM253 518v18q0 39 -2 57.5t-13 42t-38.5 33.5t-74.5 11v-313h96v-50h-96v-308h3q34 1 57.5 10t36.5 21.5t20 34.5t9 41t2 49v353z" />
    <glyph glyph-name="dcroat" unicode="&#x111;" horiz-adv-x="322" 
d="M162 688q69 0 109.5 -48.5t40.5 -121.5v-353q-2 -71 -42 -118t-108 -47h-140v9h51v308h-68v50h68v313h-53v8h142zM253 518v18q0 39 -2 57.5t-13 42t-38.5 33.5t-74.5 11v-313h96v-50h-96v-308h3q34 1 57.5 10t36.5 21.5t20 34.5t9 41t2 49v353z" />
    <glyph glyph-name="Emacron" unicode="&#x112;" horiz-adv-x="278" 
d="M20 735v50h248v-50h-248zM21 0v8h51l1 672h-53v8h237v-79h-7q0 27 -18 47t-44 24h-63l-1 -324h13q26 3 44 23t18 47h7v-149h-7q0 27 -18 47t-44 24h-13v-340h64q27 4 44.5 24t17.5 47h8v-79h-237z" />
    <glyph glyph-name="emacron" unicode="&#x113;" horiz-adv-x="278" 
d="M20 735v50h248v-50h-248zM21 0v8h51l1 672h-53v8h237v-79h-7q0 27 -18 47t-44 24h-63l-1 -324h13q26 3 44 23t18 47h7v-149h-7q0 27 -18 47t-44 24h-13v-340h64q27 4 44.5 24t17.5 47h8v-79h-237z" />
    <glyph glyph-name="Edotaccent" unicode="&#x116;" horiz-adv-x="278" 
d="M166 728q-7 0 -11 2q-13 5 -19 17q-6 11 -2 25q5 13 17 19q10 6 25 1q13 -5 19 -17t1.5 -25t-16.5 -19q-6 -3 -14 -3zM21 0v8h51l1 672h-53v8h237v-79h-7q0 27 -18 47t-44 24h-63l-1 -324h13q26 3 44 23t18 47h7v-149h-7q0 27 -18 47t-44 24h-13v-340h64q27 4 44.5 24
t17.5 47h8v-79h-237z" />
    <glyph glyph-name="edotaccent" unicode="&#x117;" horiz-adv-x="278" 
d="M155 728q-7 0 -11 2q-13 5 -19 17q-5 11 -2 25q5 13 17 19q10 6 25 1q13 -5 19 -17t1.5 -25t-16.5 -19q-6 -3 -14 -3zM21 0v8h51l1 672h-53v8h237v-79h-7q0 27 -18 47t-44 24h-63l-1 -324h13q26 3 44 23t18 47h7v-149h-7q0 27 -18 47t-44 24h-13v-340h64q27 4 44.5 24
t17.5 47h8v-79h-237z" />
    <glyph glyph-name="Eogonek" unicode="&#x118;" horiz-adv-x="278" 
d="M21 0v8h51l1 672h-53v8h237v-79h-7q0 27 -18 47t-44 24h-63l-1 -324h13q26 3 44 23t18 47h7v-149h-7q0 27 -18 47t-44 24h-13v-340h64q27 4 44.5 24t17.5 47h8v-79h-237zM190 -176q-37 -3 -51 3q-39 14 -46 60q-5 26 3 53.5t28 44.5q21 17 28 14q-12 -9 -13 -10
q-19 -22 -23 -58q-3 -27 8.5 -49t36.5 -26h8.5h10.5h9z" />
    <glyph glyph-name="eogonek" unicode="&#x119;" horiz-adv-x="278" 
d="M21 0v8h51l1 672h-53v8h237v-79h-7q0 27 -18 47t-44 24h-63l-1 -324h13q26 3 44 23t18 47h7v-149h-7q0 27 -18 47t-44 24h-13v-340h64q27 4 44.5 24t17.5 47h8v-79h-237zM194 -176q-37 -3 -51 3q-39 14 -46 60q-5 26 3 53.5t28 44.5q21 17 28 14q-12 -9 -13 -10
q-19 -22 -23 -58q-3 -27 8.5 -49t36.5 -26h8.5h10.5h9z" />
    <glyph glyph-name="Ecaron" unicode="&#x11a;" horiz-adv-x="278" 
d="M151 724l-1 1l-143 151l42 5l102 -107l102 107l41 -5l-143 -151v-1zM21 0v8h51l1 672h-53v8h237v-79h-7q0 27 -18 47t-44 24h-63l-1 -324h13q26 3 44 23t18 47h7v-149h-7q0 27 -18 47t-44 24h-13v-340h64q27 4 44.5 24t17.5 47h8v-79h-237z" />
    <glyph glyph-name="ecaron" unicode="&#x11b;" horiz-adv-x="278" 
d="M163 724l-1 1l-143 151l42 5l102 -107l102 107l41 -5l-143 -151v-1zM21 0v8h51l1 672h-53v8h237v-79h-7q0 27 -18 47t-44 24h-63l-1 -324h13q26 3 44 23t18 47h7v-149h-7q0 27 -18 47t-44 24h-13v-340h64q27 4 44.5 24t17.5 47h8v-79h-237z" />
    <glyph glyph-name="Gbreve" unicode="&#x11e;" horiz-adv-x="295" 
d="M169 731q-43 0 -73.5 25.5t-30.5 62.5h2q0 -22 30 -37.5t72 -15.5q43 0 73 15.5t30 37.5h2q0 -37 -30.5 -62.5t-74.5 -25.5zM243 0v14q2 37 -10 37q-11 0 -24 -18l-8 -10q-8 -10 -13 -14q-26 -19 -57 -6q-43 19 -77 95q-44 103 -44 247q0 143 42.5 244t103.5 102h1
q13 0 23.5 -4.5t26.5 -16.5t19 -14q4 -2 6 -2q7 0 9 12q2 15 1 20h10v-205h-8q-1 84 -25 142.5t-58 58.5q-11 0 -20.5 -4t-16.5 -13t-13 -18t-10.5 -24l-7.5 -25t-6 -26.5t-4 -24.5t-3 -23.5t-2 -17.5q-17 -145 -3 -291q1 -8 2.5 -24t2.5 -24q8 -74 24 -110q8 -17 20 -31
q29 -34 53 -15q2 1 6 5t8 10t6.5 11t5 12.5t4 12.5t2.5 14t1.5 13t1 14.5t0.5 13t0.5 13.5t0.5 12v154h-60v8h132l-1 -8h-31v-296h-10z" />
    <glyph glyph-name="gbreve" unicode="&#x11f;" horiz-adv-x="295" 
d="M168 745q-43 0 -73.5 25.5t-30.5 62.5h2q0 -22 30 -37.5t72 -15.5q43 0 73 15.5t30 37.5h2q0 -37 -30.5 -62.5t-74.5 -25.5zM243 0v14q2 37 -10 37q-11 0 -24 -18l-8 -10q-8 -10 -13 -14q-26 -19 -57 -6q-43 19 -77 95q-44 103 -44 247q0 143 42.5 244t103.5 102h1
q13 0 23.5 -4.5t26.5 -16.5t19 -14q4 -2 6 -2q7 0 9 12q2 15 1 20h10v-205h-8q-1 84 -25 142.5t-58 58.5q-11 0 -20.5 -4t-16.5 -13t-13 -18t-10.5 -24l-7.5 -25t-6 -26.5t-4 -24.5t-3 -23.5t-2 -17.5q-17 -145 -3 -291q1 -8 2.5 -24t2.5 -24q8 -74 24 -110q8 -17 20 -31
q29 -34 53 -15q2 1 6 5t8 10t6.5 11t5 12.5t4 12.5t2.5 14t1.5 13t1 14.5t0.5 13t0.5 13.5t0.5 12v154h-60v8h132l-1 -8h-31v-296h-10z" />
    <glyph glyph-name="Gdotaccent" unicode="&#x120;" horiz-adv-x="295" 
d="M170 728q-7 0 -11 2q-13 5 -19 17q-6 11 -2 25q5 13 17 19q10 6 25 1q13 -5 19 -17t1.5 -25t-16.5 -19q-6 -3 -14 -3zM243 0v14q2 37 -10 37q-11 0 -24 -18l-8 -10q-8 -10 -13 -14q-26 -19 -57 -6q-43 19 -77 95q-44 103 -44 247q0 143 42.5 244t103.5 102h1
q13 0 23.5 -4.5t26.5 -16.5t19 -14q4 -2 6 -2q7 0 9 12q2 15 1 20h10v-205h-8q-1 84 -25 142.5t-58 58.5q-11 0 -20.5 -4t-16.5 -13t-13 -18t-10.5 -24l-7.5 -25t-6 -26.5t-4 -24.5t-3 -23.5t-2 -17.5q-17 -145 -3 -291q1 -8 2.5 -24t2.5 -24q8 -74 24 -110q8 -17 20 -31
q29 -34 53 -15q2 1 6 5t8 10t6.5 11t5 12.5t4 12.5t2.5 14t1.5 13t1 14.5t0.5 13t0.5 13.5t0.5 12v154h-60v8h132l-1 -8h-31v-296h-10z" />
    <glyph glyph-name="gdotaccent" unicode="&#x121;" horiz-adv-x="295" 
d="M165 728q-7 0 -11 2q-13 5 -19 17q-5 11 -2 25q5 13 17 19q10 6 25 1q13 -5 19 -17t1.5 -25t-16.5 -19q-6 -3 -14 -3zM243 0v14q2 37 -10 37q-11 0 -24 -18l-8 -10q-8 -10 -13 -14q-26 -19 -57 -6q-43 19 -77 95q-44 103 -44 247q0 143 42.5 244t103.5 102h1
q13 0 23.5 -4.5t26.5 -16.5t19 -14q4 -2 6 -2q7 0 9 12q2 15 1 20h10v-205h-8q-1 84 -25 142.5t-58 58.5q-11 0 -20.5 -4t-16.5 -13t-13 -18t-10.5 -24l-7.5 -25t-6 -26.5t-4 -24.5t-3 -23.5t-2 -17.5q-17 -145 -3 -291q1 -8 2.5 -24t2.5 -24q8 -74 24 -110q8 -17 20 -31
q29 -34 53 -15q2 1 6 5t8 10t6.5 11t5 12.5t4 12.5t2.5 14t1.5 13t1 14.5t0.5 13t0.5 13.5t0.5 12v154h-60v8h132l-1 -8h-31v-296h-10z" />
    <glyph glyph-name="Gcommaaccent" unicode="&#x122;" horiz-adv-x="295" 
d="M243 0v14q2 37 -10 37q-11 0 -24 -18l-8 -10q-8 -10 -13 -14q-26 -19 -57 -6q-43 19 -77 95q-44 103 -44 247q0 143 42.5 244t103.5 102h1q13 0 23.5 -4.5t26.5 -16.5t19 -14q4 -2 6 -2q7 0 9 12q2 15 1 20h10v-205h-8q-1 84 -25 142.5t-58 58.5q-11 0 -20.5 -4
t-16.5 -13t-13 -18t-10.5 -24l-7.5 -25t-6 -26.5t-4 -24.5t-3 -23.5t-2 -17.5q-17 -145 -3 -291q1 -8 2.5 -24t2.5 -24q8 -74 24 -110q8 -17 20 -31q29 -34 53 -15q2 1 6 5t8 10t6.5 11t5 12.5t4 12.5t2.5 14t1.5 13t1 14.5t0.5 13t0.5 13.5t0.5 12v154h-60v8h132l-1 -8h-31
v-296h-10zM87 -159l70 117h43l-69 -117h-44z" />
    <glyph glyph-name="gcommaaccent" unicode="&#x123;" horiz-adv-x="295" 
d="M243 0v14q2 37 -10 37q-11 0 -24 -18l-8 -10q-8 -10 -13 -14q-26 -19 -57 -6q-43 19 -77 95q-44 103 -44 247q0 143 42.5 244t103.5 102h1q13 0 23.5 -4.5t26.5 -16.5t19 -14q4 -2 6 -2q7 0 9 12q2 15 1 20h10v-205h-8q-1 84 -25 142.5t-58 58.5q-11 0 -20.5 -4
t-16.5 -13t-13 -18t-10.5 -24l-7.5 -25t-6 -26.5t-4 -24.5t-3 -23.5t-2 -17.5q-17 -145 -3 -291q1 -8 2.5 -24t2.5 -24q8 -74 24 -110q8 -17 20 -31q29 -34 53 -15q2 1 6 5t8 10t6.5 11t5 12.5t4 12.5t2.5 14t1.5 13t1 14.5t0.5 13t0.5 13.5t0.5 12v154h-60v8h132l-1 -8h-31
v-296h-10zM157 -146q-28 0 -37 33q-8 24 1 45q7 17 25 27q10 6 17 6q7 2 8 0q1 -1 1 -6q-22 -11 -26 -23q-3 -10 -1 -18q8 2 12 2q13 0 23 -10t10 -23q0 -14 -9.5 -23.5t-23.5 -9.5z" />
    <glyph glyph-name="Hbar" unicode="&#x126;" 
d="M335 680h-39v-672h39v-8h-130v8h39v299h-133v-299h39v-8h-130v8h39v672h-39v8h130v-8h-39v-205h133v205h-39v8h130v-8zM111 315h133v110h-133v-110z" />
    <glyph glyph-name="hbar" unicode="&#x127;" 
d="M335 680h-39v-672h39v-8h-130v8h39v299h-133v-299h39v-8h-130v8h39v672h-39v8h130v-8h-39v-194h133v194h-39v8h130v-8zM111 315h133v121h-133v-121z" />
    <glyph glyph-name="Imacron" unicode="&#x12a;" horiz-adv-x="210" 
d="M-22 735v50h248v-50h-248zM40 0v8h39v672h-39v8h130v-8h-39v-672h39v-8h-130z" />
    <glyph glyph-name="imacron" unicode="&#x12b;" horiz-adv-x="210" 
d="M-22 735v50h248v-50h-248zM40 0v8h39v672h-39v8h130v-8h-39v-672h39v-8h-130z" />
    <glyph glyph-name="Iogonek" unicode="&#x12e;" horiz-adv-x="210" 
d="M40 0v8h39v672h-39v8h130v-8h-39v-672h39v-8h-130zM152 -176q-37 -3 -51 3q-39 14 -46 60q-5 26 3 53.5t28 44.5q21 17 28 14q-12 -9 -13 -10q-19 -22 -23 -58q-3 -27 8.5 -49t36.5 -26h8.5h10.5h9z" />
    <glyph glyph-name="iogonek" unicode="&#x12f;" horiz-adv-x="210" 
d="M40 0v8h39v672h-39v8h130v-8h-39v-672h39v-8h-130zM152 -176q-37 -3 -51 3q-39 14 -46 60q-5 26 3 53.5t28 44.5q21 17 28 14q-12 -9 -13 -10q-19 -22 -23 -58q-3 -27 8.5 -49t36.5 -26h8.5h10.5h9z" />
    <glyph glyph-name="Idotaccent" unicode="&#x130;" horiz-adv-x="210" 
d="M105 728q-7 0 -11 2q-13 5 -19 17q-5 11 -2 25q5 13 17 19q10 6 25 1q13 -5 19 -17t1.5 -25t-16.5 -19q-6 -3 -14 -3zM40 0v8h39v672h-39v8h130v-8h-39v-672h39v-8h-130z" />
    <glyph glyph-name="dotlessi" unicode="&#x131;" horiz-adv-x="210" 
d="M40 0v8h39v672h-39v8h130v-8h-39v-672h39v-8h-130z" />
    <glyph glyph-name="Kcommaaccent" unicode="&#x136;" horiz-adv-x="336" 
d="M336 680h-55l-139 -273l153 -399h40v-8h-130v8h38l-132 339v-339h39v-8h-130v8h39v672h-39v8h130v-8h-39v-306l157 306h-62v8h130v-8zM85 -159l70 117h43l-69 -117h-44z" />
    <glyph glyph-name="kcommaaccent" unicode="&#x137;" horiz-adv-x="336" 
d="M336 680h-55l-139 -273l153 -399h40v-8h-130v8h38l-132 339v-339h39v-8h-130v8h39v672h-39v8h130v-8h-39v-306l157 306h-62v8h130v-8zM18 -159l70 117h43l-69 -117h-44z" />
    <glyph glyph-name="Lacute" unicode="&#x139;" horiz-adv-x="270" 
d="M31 734l70 116h43l-70 -116h-43zM23 0v8h51v672h-54v8h160v-8h-54v-672h64q27 4 44.5 24t17.5 47h8v-79h-237z" />
    <glyph glyph-name="lacute" unicode="&#x13a;" horiz-adv-x="270" 
d="M31 734l70 116h43l-70 -116h-43zM23 0v8h51v672h-54v8h160v-8h-54v-672h64q27 4 44.5 24t17.5 47h8v-79h-237z" />
    <glyph glyph-name="Lcommaaccent" unicode="&#x13b;" horiz-adv-x="270" 
d="M23 0v8h51v672h-54v8h160v-8h-54v-672h64q27 4 44.5 24t17.5 47h8v-79h-237zM18 -159l70 117h43l-69 -117h-44z" />
    <glyph glyph-name="lcommaaccent" unicode="&#x13c;" horiz-adv-x="270" 
d="M23 0v8h51v672h-54v8h160v-8h-54v-672h64q27 4 44.5 24t17.5 47h8v-79h-237zM18 -159l70 117h43l-69 -117h-44z" />
    <glyph glyph-name="Lcaron" unicode="&#x13d;" horiz-adv-x="270" 
d="M103 724l-1 1l-143 151l42 5l102 -107l102 107l41 -5l-143 -151v-1zM23 0v8h51v672h-54v8h160v-8h-54v-672h64q27 4 44.5 24t17.5 47h8v-79h-237z" />
    <glyph glyph-name="lcaron" unicode="&#x13e;" horiz-adv-x="270" 
d="M23 0v8h51v672h-54v8h160v-8h-54v-672h64q27 4 44.5 24t17.5 47h8v-79h-237z" />
    <glyph glyph-name="Lslash" unicode="&#x141;" horiz-adv-x="270" 
d="M252 79h8v-79h-237v8h51v107l-27 -92h-50l77 263v394h-54v8h160v-8h-54v-216l37 126h50l-87 -297v-285h64q27 4 44.5 24t17.5 47z" />
    <glyph glyph-name="lslash" unicode="&#x142;" horiz-adv-x="270" 
d="M252 79h8v-79h-237v8h51v53l-11 -38h-50l61 208v449h-54v8h160v-8h-54v-271l53 181h50l-103 -352v-230h64q27 4 44.5 24t17.5 47z" />
    <glyph glyph-name="Nacute" unicode="&#x143;" horiz-adv-x="321" 
d="M231 850l-70 -116h-43l70 116h43zM189 688h112v-8h-52v-683l-167 683h-2v-672h52v-8h-112v8h52v672h-52v8h112l109 -451v443h-52v8z" />
    <glyph glyph-name="nacute" unicode="&#x144;" horiz-adv-x="321" 
d="M222 863l-70 -116h-43l70 116h43zM189 688h112v-8h-52v-683l-167 683h-2v-672h52v-8h-112v8h52v672h-52v8h112l109 -451v443h-52v8z" />
    <glyph glyph-name="Ncommaaccent" unicode="&#x145;" horiz-adv-x="321" 
d="M189 688h112v-8h-52v-683l-167 683h-2v-672h52v-8h-112v8h52v672h-52v8h112l109 -451v443h-52v8zM93 -159l70 117h43l-69 -117h-44z" />
    <glyph glyph-name="ncommaaccent" unicode="&#x146;" horiz-adv-x="321" 
d="M189 688h112v-8h-52v-683l-167 683h-2v-672h52v-8h-112v8h52v672h-52v8h112l109 -451v443h-52v8zM80 -159l70 117h43l-69 -117h-44z" />
    <glyph glyph-name="Ncaron" unicode="&#x147;" horiz-adv-x="321" 
d="M163 724l-1 1l-143 151l42 5l102 -107l102 107l41 -5l-143 -151v-1zM189 680v8h112v-8h-52v-683l-167 683h-2v-672h52v-8h-112v8h52v672h-52v8h112l109 -451v443h-52z" />
    <glyph glyph-name="ncaron" unicode="&#x148;" horiz-adv-x="321" 
d="M163 724l-1 1l-143 151l42 5l102 -107l102 107l41 -5l-143 -151v-1zM189 680v8h112v-8h-52v-683l-167 683h-2v-672h52v-8h-112v8h52v672h-52v8h112l109 -451v443h-52z" />
    <glyph glyph-name="Eng" unicode="&#x14a;" horiz-adv-x="321" 
d="M147 -92l1 32h9h10.5h8.5q20 3 36 19.5t21 36.5q3 12 3 36q0 17 -8 51q-10 37 -22 89l-30 123l-33 135l-30 124q-4 15 -11.5 45.5t-11.5 45.5l-8 35h-2v-672h52v-8h-112v8h52v672h-52v8h112l109 -451v443h-52v8h112v-8h-52v-494v-11q0 -16 -0.5 -47.5t-0.5 -46.5
q2 -67 -1 -92q-4 -28 -13 -45q-13 -24 -36 -33q-14 -6 -51 -3z" />
    <glyph glyph-name="eng" unicode="&#x14b;" horiz-adv-x="321" 
d="M147 -92l1 32h9h10.5h8.5q20 3 36 19.5t21 36.5q3 12 3 36q0 17 -8 51q-10 37 -22 89l-30 123l-33 135l-30 124q-4 15 -11.5 45.5t-11.5 45.5l-8 35h-2v-672h52v-8h-112v8h52v672h-52v8h112l109 -451v443h-52v8h112v-8h-52v-494v-11q0 -16 -0.5 -47.5t-0.5 -46.5
q2 -67 -1 -92q-4 -28 -13 -45q-13 -24 -36 -33q-14 -6 -51 -3z" />
    <glyph glyph-name="Omacron" unicode="&#x14c;" horiz-adv-x="335" 
d="M46 735v50h248v-50h-248zM167 -4q-61 0 -104 101.5t-43 244.5t43 245t104 102t104.5 -102t43.5 -245t-43.5 -244.5t-104.5 -101.5zM167 2q37 0 63 99.5t26 240.5t-26 240.5t-63 99.5t-62.5 -99.5t-25.5 -240.5t25.5 -240.5t62.5 -99.5z" />
    <glyph glyph-name="omacron" unicode="&#x14d;" horiz-adv-x="335" 
d="M43 735v50h248v-50h-248zM167 -4q-61 0 -104 101.5t-43 244.5t43 245t104 102t104.5 -102t43.5 -245t-43.5 -244.5t-104.5 -101.5zM167 2q37 0 63 99.5t26 240.5t-26 240.5t-63 99.5t-62.5 -99.5t-25.5 -240.5t25.5 -240.5t62.5 -99.5z" />
    <glyph glyph-name="Ohungarumlaut" unicode="&#x150;" horiz-adv-x="335" 
d="M93 729l70 116h43l-70 -116h-43zM182 729l70 116h43l-70 -116h-43zM167 -4q-61 0 -104 101.5t-43 244.5t43 245t104 102t104.5 -102t43.5 -245t-43.5 -244.5t-104.5 -101.5zM167 2q37 0 63 99.5t26 240.5t-26 240.5t-63 99.5t-62.5 -99.5t-25.5 -240.5t25.5 -240.5
t62.5 -99.5z" />
    <glyph glyph-name="ohungarumlaut" unicode="&#x151;" horiz-adv-x="335" 
d="M89 733l70 116h43l-70 -116h-43zM178 733l70 116h43l-70 -116h-43zM167 -4q-61 0 -104 101.5t-43 244.5t43 245t104 102t104.5 -102t43.5 -245t-43.5 -244.5t-104.5 -101.5zM167 2q37 0 63 99.5t26 240.5t-26 240.5t-63 99.5t-62.5 -99.5t-25.5 -240.5t25.5 -240.5
t62.5 -99.5z" />
    <glyph glyph-name="OE" unicode="&#x152;" horiz-adv-x="469" 
d="M167 -2q-61 0 -104 101.5t-43 244.5t43 245t104 102q56 0 96 -85l1 74h-53v8h237v-79h-7q0 27 -18 47t-44 24h-63l-1 -324h13q26 3 44 23t18 47h7v-149h-7q0 27 -18 47t-44 24h-13v-340h64q27 4 44.5 24t17.5 47h8v-79h-237v8h51v73q-41 -83 -96 -83zM167 4q37 0 63 99.5
t26 240.5t-26 240.5t-63 99.5t-62.5 -99.5t-25.5 -240.5t25.5 -240.5t62.5 -99.5z" />
    <glyph glyph-name="oe" unicode="&#x153;" horiz-adv-x="469" 
d="M167 -2q-61 0 -104 101.5t-43 244.5t43 245t104 102q56 0 96 -85l1 74h-53v8h237v-79h-7q0 27 -18 47t-44 24h-63l-1 -324h13q26 3 44 23t18 47h7v-149h-7q0 27 -18 47t-44 24h-13v-340h64q27 4 44.5 24t17.5 47h8v-79h-237v8h51v73q-41 -83 -96 -83zM167 4q37 0 63 99.5
t26 240.5t-26 240.5t-63 99.5t-62.5 -99.5t-25.5 -240.5t25.5 -240.5t62.5 -99.5z" />
    <glyph glyph-name="Racute" unicode="&#x154;" horiz-adv-x="363" 
d="M126 734l70 116h43l-70 -116h-43zM317 -2q-31 0 -54 21q-17 16 -21 53q-3 24 -2 67t0 67q-7 76 -58 116q-24 18 -57 23v-337h53v-8h-156v8h51v670h-53v8h142q69 0 109.5 -48.5t40.5 -120.5q0 -66 -33.5 -113t-91.5 -56q16 -3 28 -9q39 -21 60 -61q19 -40 21 -93
q0 -3 0.5 -7.5t0.5 -6.5q0 -12 -0.5 -34.5t-0.5 -41t1 -34.5q2 -38 22 -49q23 -14 49 9q1 -3 5 -7q-16 -16 -56 -16zM125 355h2q43 1 69.5 13t38.5 37t15 48.5t3 63.5v18q0 31 -0.5 46t-7 37t-19.5 32.5t-38 18.5t-63 9v-323z" />
    <glyph glyph-name="racute" unicode="&#x155;" horiz-adv-x="363" 
d="M127 734l70 116h43l-70 -116h-43zM317 -2q-31 0 -54 21q-17 16 -21 53q-3 24 -2 67t0 67q-7 76 -58 116q-24 18 -57 23v-337h53v-8h-156v8h51v670h-53v8h142q69 0 109.5 -48.5t40.5 -120.5q0 -66 -33.5 -113t-91.5 -56q16 -3 28 -9q39 -21 60 -61q19 -40 21 -93
q0 -3 0.5 -7.5t0.5 -6.5q0 -12 -0.5 -34.5t-0.5 -41t1 -34.5q2 -38 22 -49q23 -14 49 9q1 -3 5 -7q-16 -16 -56 -16zM125 355h2q43 1 69.5 13t38.5 37t15 48.5t3 63.5v18q0 31 -0.5 46t-7 37t-19.5 32.5t-38 18.5t-63 9v-323z" />
    <glyph glyph-name="Rcommaaccent" unicode="&#x156;" horiz-adv-x="363" 
d="M317 -2q-31 0 -54 21q-17 16 -21 53q-3 24 -2 67t0 67q-7 76 -58 116q-24 18 -57 23v-337h53v-8h-156v8h51v670h-53v8h142q69 0 109.5 -48.5t40.5 -120.5q0 -66 -33.5 -113t-91.5 -56q16 -3 28 -9q39 -21 60 -61q19 -40 21 -93q0 -3 0.5 -7.5t0.5 -6.5q0 -12 -0.5 -34.5
t-0.5 -41t1 -34.5q2 -38 22 -49q23 -14 49 9q1 -3 5 -7q-16 -16 -56 -16zM125 355h2q43 1 69.5 13t38.5 37t15 48.5t3 63.5v18q0 31 -0.5 46t-7 37t-19.5 32.5t-38 18.5t-63 9v-323zM118 -159l70 117h43l-69 -117h-44z" />
    <glyph glyph-name="rcommaaccent" unicode="&#x157;" horiz-adv-x="363" 
d="M317 -2q-31 0 -54 21q-17 16 -21 53q-3 24 -2 67t0 67q-7 76 -58 116q-24 18 -57 23v-337h53v-8h-156v8h51v670h-53v8h142q69 0 109.5 -48.5t40.5 -120.5q0 -66 -33.5 -113t-91.5 -56q16 -3 28 -9q39 -21 60 -61q19 -40 21 -93q0 -3 0.5 -7.5t0.5 -6.5q0 -12 -0.5 -34.5
t-0.5 -41t1 -34.5q2 -38 22 -49q23 -14 49 9q1 -3 5 -7q-16 -16 -56 -16zM125 355h2q43 1 69.5 13t38.5 37t15 48.5t3 63.5v18q0 31 -0.5 46t-7 37t-19.5 32.5t-38 18.5t-63 9v-323zM121 -159l70 117h43l-69 -117h-44z" />
    <glyph glyph-name="Rcaron" unicode="&#x158;" horiz-adv-x="363" 
d="M163 724l-1 1l-143 151l42 5l102 -107l102 107l41 -5l-143 -151v-1zM317 -2q-31 0 -54 21q-17 16 -21 53q-3 24 -2 67t0 67q-7 76 -58 116q-24 18 -57 23v-337h53v-8h-156v8h51v670h-53v8h142q69 0 109.5 -48.5t40.5 -120.5q0 -66 -33.5 -113t-91.5 -56q16 -3 28 -9
q39 -21 60 -61q19 -40 21 -93q0 -3 0.5 -7.5t0.5 -6.5q0 -12 -0.5 -34.5t-0.5 -41t1 -34.5q2 -38 22 -49q23 -14 49 9q1 -3 5 -7q-16 -16 -56 -16zM125 355h2q43 1 69.5 13t38.5 37t15 48.5t3 63.5v18q0 31 -0.5 46t-7 37t-19.5 32.5t-38 18.5t-63 9v-323z" />
    <glyph glyph-name="rcaron" unicode="&#x159;" horiz-adv-x="363" 
d="M163 724l-1 1l-143 151l42 5l102 -107l102 107l41 -5l-143 -151v-1zM317 -2q-31 0 -54 21q-17 16 -21 53q-3 24 -2 67t0 67q-7 76 -58 116q-24 18 -57 23v-337h53v-8h-156v8h51v670h-53v8h142q69 0 109.5 -48.5t40.5 -120.5q0 -66 -33.5 -113t-91.5 -56q16 -3 28 -9
q39 -21 60 -61q19 -40 21 -93q0 -3 0.5 -7.5t0.5 -6.5q0 -12 -0.5 -34.5t-0.5 -41t1 -34.5q2 -38 22 -49q23 -14 49 9q1 -3 5 -7q-16 -16 -56 -16zM125 355h2q43 1 69.5 13t38.5 37t15 48.5t3 63.5v18q0 31 -0.5 46t-7 37t-19.5 32.5t-38 18.5t-63 9v-323z" />
    <glyph glyph-name="Sacute" unicode="&#x15a;" horiz-adv-x="263" 
d="M96 734l70 116h43l-70 -116h-43zM21 0v220h7q2 -29 6 -53q3 -39 18 -75q19 -51 47 -67q1 0 1 -0.5t1 -0.5q22 -18 54 -13.5t48 28.5q14 20 17 45q11 67 -30 144q-20 38 -78.5 106.5t-79.5 110.5q-53 109 15 192q28 34 68.5 43.5t75.5 -19.5q8 -8 13 -10q9 -6 15 2
q1 2 2 4.5t1 3.5v28h10v-212q-2 0 -4 0.5t-4 0.5q0 13 -2 37q-2 26 -7 46q-11 52 -31 83.5t-44 31.5h-1q-30 3 -52.5 -23t-30.5 -59q-16 -67 31 -136q14 -21 67 -87.5t75 -106.5q68 -123 -3 -217q-24 -32 -58.5 -43t-71.5 6q-16 10 -22 17q-19 22 -26 24q-6 2 -11.5 -0.5
t-5.5 -9.5v-41h-10z" />
    <glyph glyph-name="sacute" unicode="&#x15b;" horiz-adv-x="263" 
d="M100 734l70 116h43l-70 -116h-43zM21 0v220h7q2 -29 6 -53q3 -39 18 -75q19 -51 47 -67q1 0 1 -0.5t1 -0.5q22 -18 54 -13.5t48 28.5q14 20 17 45q11 67 -30 144q-20 38 -78.5 106.5t-79.5 110.5q-53 109 15 192q28 34 68.5 43.5t75.5 -19.5q8 -8 13 -10q9 -6 15 2
q1 2 2 4.5t1 3.5v28h10v-212q-2 0 -4 0.5t-4 0.5q0 13 -2 37q-2 26 -7 46q-11 52 -31 83.5t-44 31.5h-1q-30 3 -52.5 -23t-30.5 -59q-16 -67 31 -136q14 -21 67 -87.5t75 -106.5q68 -123 -3 -217q-24 -32 -58.5 -43t-71.5 6q-16 10 -22 17q-19 22 -26 24q-6 2 -11.5 -0.5
t-5.5 -9.5v-41h-10z" />
    <glyph glyph-name="Scedilla" unicode="&#x15e;" horiz-adv-x="263" 
d="M229 264q68 -123 -3 -217q-18 -25 -44 -38t-54 -9v-38h-8v39h1q-14 3 -25 9q-16 10 -22 17q-19 22 -26 24q-6 2 -11.5 -0.5t-5.5 -9.5v-41h-10v220h7q2 -29 6 -53q3 -39 18 -75q19 -51 47 -67q1 0 1 -0.5t1 -0.5q22 -18 54 -13.5t48 28.5q14 20 17 45q11 67 -30 144
q-20 38 -78.5 106.5t-79.5 110.5q-53 109 15 192q28 34 68.5 43.5t75.5 -19.5q8 -8 13 -10q9 -6 15 2q1 2 2 4.5t1 3.5v28h10v-212q-2 0 -4 0.5t-4 0.5q0 13 -2 37q-2 26 -7 46q-11 52 -31 83.5t-44 31.5h-1q-30 3 -52.5 -23t-30.5 -59q-16 -67 31 -136q14 -21 67 -87.5
t75 -106.5zM164 -97q0 24 -12.5 41t-31.5 17v1q31 0 52 -17.5t21 -41.5t-19.5 -41.5t-47.5 -18.5h-2h-2q-16 0 -27 8q-9 6 -11 18h2q4 -11 11 -16q11 -8 27 -8q17 2 28.5 18.5t11.5 39.5z" />
    <glyph glyph-name="scedilla" unicode="&#x15f;" horiz-adv-x="263" 
d="M229 264q68 -123 -3 -217q-33 -46 -84 -48v-37h-8v37q-20 2 -38 11q-16 10 -22 17q-19 22 -26 24q-6 2 -11.5 -0.5t-5.5 -9.5v-41h-10v220h7q2 -29 6 -53q3 -39 18 -75q19 -51 47 -67q1 0 1 -0.5t1 -0.5q22 -18 54 -13.5t48 28.5q14 20 17 45q11 67 -30 144
q-20 38 -78.5 106.5t-79.5 110.5q-53 109 15 192q28 34 68.5 43.5t75.5 -19.5q8 -8 13 -10q9 -6 15 2q1 2 2 4.5t1 3.5v28h10v-212q-2 0 -4 0.5t-4 0.5q0 13 -2 37q-2 26 -7 46q-11 52 -31 83.5t-44 31.5h-1q-30 3 -52.5 -23t-30.5 -59q-16 -67 31 -136q14 -21 67 -87.5
t75 -106.5zM178 -97q0 24 -12.5 41t-31.5 17v1q31 0 52 -17.5t21 -41.5t-19.5 -41.5t-47.5 -18.5h-2h-2q-16 0 -27 8q-9 6 -11 18h2q4 -11 11 -16q11 -8 27 -8q17 2 28.5 18.5t11.5 39.5z" />
    <glyph glyph-name="Scaron" unicode="&#x160;" horiz-adv-x="263" 
d="M163 724l-1 1l-143 151l42 5l102 -107l102 107l41 -5l-143 -151v-1zM21 0v220h7q2 -29 6 -53q3 -39 18 -75q19 -51 47 -67q1 0 1 -0.5t1 -0.5q22 -18 54 -13.5t48 28.5q14 20 17 45q11 67 -30 144q-20 38 -78.5 106.5t-79.5 110.5q-53 109 15 192q28 34 68.5 43.5
t75.5 -19.5q8 -8 13 -10q9 -6 15 2q1 2 2 4.5t1 3.5v28h10v-212q-2 0 -4 0.5t-4 0.5q0 13 -2 37q-2 26 -7 46q-11 52 -31 83.5t-44 31.5h-1q-30 3 -52.5 -23t-30.5 -59q-16 -67 31 -136q14 -21 67 -87.5t75 -106.5q68 -123 -3 -217q-24 -32 -58.5 -43t-71.5 6q-16 10 -22 17
q-19 22 -26 24q-6 2 -11.5 -0.5t-5.5 -9.5v-41h-10z" />
    <glyph glyph-name="scaron" unicode="&#x161;" horiz-adv-x="263" 
d="M131 724l-1 1l-143 151l42 5l102 -107l102 107l41 -5l-143 -151v-1zM21 0v220h7q2 -29 6 -53q3 -39 18 -75q19 -51 47 -67q1 0 1 -0.5t1 -0.5q22 -18 54 -13.5t48 28.5q14 20 17 45q11 67 -30 144q-20 38 -78.5 106.5t-79.5 110.5q-53 109 15 192q28 34 68.5 43.5
t75.5 -19.5q8 -8 13 -10q9 -6 15 2q1 2 2 4.5t1 3.5v28h10v-212q-2 0 -4 0.5t-4 0.5q0 13 -2 37q-2 26 -7 46q-11 52 -31 83.5t-44 31.5h-1q-30 3 -52.5 -23t-30.5 -59q-16 -67 31 -136q14 -21 67 -87.5t75 -106.5q68 -123 -3 -217q-24 -32 -58.5 -43t-71.5 6q-16 10 -22 17
q-19 22 -26 24q-6 2 -11.5 -0.5t-5.5 -9.5v-41h-10z" />
    <glyph glyph-name="uni0162" unicode="&#x162;" horiz-adv-x="352" 
d="M20 688h312v-91h-7q0 29 -20.5 55.5t-48.5 27.5h-54v-672h39v-8h-60v-38h-8v38h-62v8h39v672h-54q-28 -1 -48.5 -27.5t-20.5 -55.5h-7v91zM217 -97q0 24 -12.5 41t-31.5 17v1q31 0 52 -17.5t21 -41.5t-19.5 -41.5t-47.5 -18.5h-2h-2q-16 0 -27 8q-9 6 -11 18h2
q4 -11 11 -16q11 -8 27 -8q17 2 28.5 18.5t11.5 39.5z" />
    <glyph glyph-name="uni0163" unicode="&#x163;" horiz-adv-x="352" 
d="M20 688h312v-91h-7q0 29 -20.5 55.5t-48.5 27.5h-54v-672h39v-8h-61v-38h-8v38h-61v8h39v672h-54q-28 -1 -48.5 -27.5t-20.5 -55.5h-7v91zM216 -97q0 24 -12.5 41t-31.5 17v1q31 0 52 -17.5t21 -41.5t-19.5 -41.5t-47.5 -18.5h-2h-2q-16 0 -27 8q-9 6 -11 18h2
q4 -11 11 -16q11 -8 27 -8q17 2 28.5 18.5t11.5 39.5z" />
    <glyph glyph-name="Tcaron" unicode="&#x164;" horiz-adv-x="352" 
d="M180 724l-1 1l-143 151l42 5l102 -107l102 107l41 -5l-143 -151v-1zM111 0v8h39v672h-54q-28 -1 -48.5 -27.5t-20.5 -55.5h-7v91h312v-91h-7q0 29 -20.5 55.5t-48.5 27.5h-54v-672h39v-8h-130z" />
    <glyph glyph-name="tcaron" unicode="&#x165;" horiz-adv-x="352" 
d="M180 724l-1 1l-143 151l42 5l102 -107l102 107l41 -5l-143 -151v-1zM111 0v8h39v672h-54q-28 -1 -48.5 -27.5t-20.5 -55.5h-7v91h312v-91h-7q0 29 -20.5 55.5t-48.5 27.5h-54v-672h39v-8h-130z" />
    <glyph glyph-name="Tbar" unicode="&#x166;" horiz-adv-x="352" 
d="M20 688h312v-91h-7q0 29 -20.5 55.5t-48.5 27.5h-54v-313h86v-50h-86v-309h39v-8h-130v8h39v309h-78v50h78v313h-54q-28 -1 -48.5 -27.5t-20.5 -55.5h-7v91z" />
    <glyph glyph-name="tbar" unicode="&#x167;" horiz-adv-x="352" 
d="M20 688h312v-91h-7q0 29 -20.5 55.5t-48.5 27.5h-54v-313h86v-50h-86v-309h39v-8h-130v8h39v309h-78v50h78v313h-54q-28 -1 -48.5 -27.5t-20.5 -55.5h-7v91z" />
    <glyph glyph-name="Umacron" unicode="&#x16a;" 
d="M56 735v50h248v-50h-248zM177 0q-48 0 -82.5 34t-34.5 83v563h-40v8h130v-8h-37v-562q0 -44 19 -75.5t45 -31.5q44 0 75.5 31t31.5 75v563h-60v8h131v-8h-61v-563q0 -49 -34 -83t-83 -34z" />
    <glyph glyph-name="umacron" unicode="&#x16b;" 
d="M50 735v50h248v-50h-248zM177 0q-48 0 -82.5 34t-34.5 83v563h-40v8h130v-8h-37v-562q0 -44 19 -75.5t45 -31.5q44 0 75.5 31t31.5 75v563h-60v8h131v-8h-61v-563q0 -49 -34 -83t-83 -34z" />
    <glyph glyph-name="Uring" unicode="&#x16e;" 
d="M187 728q-37 0 -63 22.5t-26 54.5t26 54.5t63 22.5t63 -22.5t26 -54.5t-26 -54.5t-63 -22.5zM187 729q22 0 37.5 22.5t15.5 53.5t-15.5 53.5t-37.5 22.5t-38 -22t-16 -54t16 -54t38 -22zM177 0q-48 0 -82.5 34t-34.5 83v563h-40v8h130v-8h-37v-562q0 -44 19 -75.5
t45 -31.5q44 0 75.5 31t31.5 75v563h-60v8h131v-8h-61v-563q0 -49 -34 -83t-83 -34z" />
    <glyph glyph-name="uring" unicode="&#x16f;" 
d="M186 728q-37 0 -63 22.5t-26 54.5t26 54.5t63 22.5t63 -22.5t26 -54.5t-26 -54.5t-63 -22.5zM186 729q22 0 37.5 22.5t15.5 53.5t-15.5 53.5t-37.5 22.5t-38 -22t-16 -54t16 -54t38 -22zM177 0q-48 0 -82.5 34t-34.5 83v563h-40v8h130v-8h-37v-562q0 -44 19 -75.5
t45 -31.5q44 0 75.5 31t31.5 75v563h-60v8h131v-8h-61v-563q0 -49 -34 -83t-83 -34z" />
    <glyph glyph-name="Uhungarumlaut" unicode="&#x170;" 
d="M108 733l70 116h43l-70 -116h-43zM197 733l70 116h43l-70 -116h-43zM177 0q-48 0 -82.5 34t-34.5 83v563h-40v8h130v-8h-37v-562q0 -44 19 -75.5t45 -31.5q44 0 75.5 31t31.5 75v563h-60v8h131v-8h-61v-563q0 -49 -34 -83t-83 -34z" />
    <glyph glyph-name="uhungarumlaut" unicode="&#x171;" 
d="M105 733l70 116h43l-70 -116h-43zM194 733l70 116h43l-70 -116h-43zM177 0q-48 0 -82.5 34t-34.5 83v563h-40v8h130v-8h-37v-562q0 -44 19 -75.5t45 -31.5q44 0 75.5 31t31.5 75v563h-60v8h131v-8h-61v-563q0 -49 -34 -83t-83 -34z" />
    <glyph glyph-name="Uogonek" unicode="&#x172;" 
d="M224 688h131v-8h-61v-563q0 -49 -34 -83t-83 -34h-3l-3 -3q-19 -22 -23 -58q-3 -27 8.5 -49t36.5 -26h28l1 -32q-37 -3 -51 3q-39 14 -46 60q-5 26 3 53.5t28 44.5q2 2 10 8q-44 4 -75 37t-31 79v563h-40v8h130v-8h-37v-562q0 -44 19 -75.5t45 -31.5q44 0 75.5 31
t31.5 75v563h-60v8z" />
    <glyph glyph-name="uogonek" unicode="&#x173;" 
d="M224 688h131v-8h-61v-563q0 -47 -32 -81t-79 -36q-2 -1 -4 -3q-19 -22 -23 -58q-3 -27 8.5 -49t36.5 -26h8.5h10.5h9l1 -32q-37 -3 -51 3q-39 14 -46 60q-5 26 3 53.5t28 44.5q1 1 9 7q-47 2 -80 35.5t-33 81.5v563h-40v8h130v-8h-37v-562q0 -44 19 -75.5t45 -31.5
q44 0 75.5 31t31.5 75v563h-60v8z" />
    <glyph glyph-name="Wcircumflex" unicode="&#x174;" horiz-adv-x="451" 
d="M116 729l-42 5l143 151l1 1v-1l143 -151l-41 -5l-102 107zM144 1l-114 679h-30v8h112v-8h-30l82 -486l46 291l-33 195h-29v8h112v-8h-31l83 -488l78 488h-51v8h112v-8h-53l-106 -674l-1 -5l-77 458l-45 -294l-10 -63l-15 -96v-5z" />
    <glyph glyph-name="wcircumflex" unicode="&#x175;" horiz-adv-x="451" 
d="M117 729l-42 5l143 151l1 1v-1l143 -151l-41 -5l-102 107zM144 1l-114 679h-30v8h112v-8h-30l82 -486l46 291l-33 195h-29v8h112v-8h-31l83 -488l78 488h-51v8h112v-8h-53l-106 -674l-1 -5l-77 458l-45 -294l-10 -63l-15 -96v-5z" />
    <glyph glyph-name="Ycircumflex" unicode="&#x176;" horiz-adv-x="320" 
d="M62 729l-42 5l143 151l1 1v-1l143 -151l-41 -5l-102 107zM84 0v8h39v345l-90 327h-33v8h112v-8h-27l85 -307l89 307h-51v8h112v-8h-53l-92 -317v-355h40v-8h-131z" />
    <glyph glyph-name="ycircumflex" unicode="&#x177;" horiz-adv-x="320" 
d="M62 729l-42 5l143 151l1 1v-1l143 -151l-41 -5l-102 107zM84 0v8h39v345l-90 327h-33v8h112v-8h-27l85 -307l89 307h-51v8h112v-8h-53l-92 -317v-355h40v-8h-131z" />
    <glyph glyph-name="Ydieresis" unicode="&#x178;" horiz-adv-x="320" 
d="M107 728q-7 0 -11 2q-13 5 -19 17q-5 11 -2 25q5 13 17 19q10 6 25 1q13 -5 19 -17t1.5 -25t-16.5 -19q-6 -3 -14 -3zM216 728q-7 0 -11 2q-13 5 -19 17q-6 11 -2 25q5 13 17 19q10 6 25 1q13 -5 19 -17t1.5 -25t-16.5 -19q-6 -3 -14 -3zM84 0v8h39v345l-90 327h-33v8
h112v-8h-27l85 -307l89 307h-51v8h112v-8h-53l-92 -317v-355h40v-8h-131z" />
    <glyph glyph-name="Zacute" unicode="&#x179;" horiz-adv-x="236" 
d="M104 734l70 116h43l-70 -116h-43zM20 0l142 679h-59q-26 -4 -44.5 -29.5t-18.5 -53.5h-7v91h183l-142 -679h66q1 0 2.5 0.5t2.5 0.5q24 7 40.5 31t16.5 50h7v-90h-189z" />
    <glyph glyph-name="zacute" unicode="&#x17a;" horiz-adv-x="236" 
d="M100 734l70 116h43l-70 -116h-43zM20 0l142 679h-59q-26 -4 -44.5 -29.5t-18.5 -53.5h-7v91h183l-142 -679h66q1 0 2.5 0.5t2.5 0.5q24 7 40.5 31t16.5 50h7v-90h-189z" />
    <glyph glyph-name="Zdotaccent" unicode="&#x17b;" horiz-adv-x="236" 
d="M129 728q-7 0 -11 2q-13 5 -19 17q-5 11 -2 25q5 13 17 19q10 6 25 1q13 -5 19 -17t1.5 -25t-16.5 -19q-6 -3 -14 -3zM20 0l142 679h-59q-26 -4 -44.5 -29.5t-18.5 -53.5h-7v91h183l-142 -679h66q1 0 2.5 0.5t2.5 0.5q24 7 40.5 31t16.5 50h7v-90h-189z" />
    <glyph glyph-name="zdotaccent" unicode="&#x17c;" horiz-adv-x="236" 
d="M130 728q-7 0 -11 2q-13 5 -19 17q-6 11 -2 25q5 13 17 19q10 6 25 1q13 -5 19 -17t1.5 -25t-16.5 -19q-6 -3 -14 -3zM20 0l142 679h-59q-26 -4 -44.5 -29.5t-18.5 -53.5h-7v91h183l-142 -679h66q1 0 2.5 0.5t2.5 0.5q24 7 40.5 31t16.5 50h7v-90h-189z" />
    <glyph glyph-name="Zcaron" unicode="&#x17d;" horiz-adv-x="236" 
d="M140 724l-1 1l-143 151l42 5l102 -107l102 107l41 -5l-143 -151v-1zM20 0l142 679h-59q-26 -4 -44.5 -29.5t-18.5 -53.5h-7v91h183l-142 -679h66q1 0 2.5 0.5t2.5 0.5q24 7 40.5 31t16.5 50h7v-90h-189z" />
    <glyph glyph-name="zcaron" unicode="&#x17e;" horiz-adv-x="236" 
d="M142 724l-1 1l-143 151l42 5l102 -107l102 107l41 -5l-143 -151v-1zM20 0l142 679h-59q-26 -4 -44.5 -29.5t-18.5 -53.5h-7v91h183l-142 -679h66q1 0 2.5 0.5t2.5 0.5q24 7 40.5 31t16.5 50h7v-90h-189z" />
    <glyph glyph-name="Scommaaccent" unicode="&#x218;" horiz-adv-x="263" 
d="M21 0v220h7q2 -29 6 -53q3 -39 18 -75q19 -51 47 -67q1 0 1 -0.5t1 -0.5q22 -18 54 -13.5t48 28.5q14 20 17 45q11 67 -30 144q-20 38 -78.5 106.5t-79.5 110.5q-53 109 15 192q28 34 68.5 43.5t75.5 -19.5q8 -8 13 -10q9 -6 15 2q1 2 2 4.5t1 3.5v28h10v-212
q-2 0 -4 0.5t-4 0.5q0 13 -2 37q-2 26 -7 46q-11 52 -31 83.5t-44 31.5h-1q-30 3 -52.5 -23t-30.5 -59q-16 -67 31 -136q14 -21 67 -87.5t75 -106.5q68 -123 -3 -217q-24 -32 -58.5 -43t-71.5 6q-16 10 -22 17q-19 22 -26 24q-6 2 -11.5 -0.5t-5.5 -9.5v-41h-10zM72 -159
l70 117h43l-69 -117h-44z" />
    <glyph glyph-name="scommaaccent" unicode="&#x219;" horiz-adv-x="263" 
d="M21 0v220h7q2 -29 6 -53q3 -39 18 -75q19 -51 47 -67q1 0 1 -0.5t1 -0.5q22 -18 54 -13.5t48 28.5q14 20 17 45q11 67 -30 144q-20 38 -78.5 106.5t-79.5 110.5q-53 109 15 192q28 34 68.5 43.5t75.5 -19.5q8 -8 13 -10q9 -6 15 2q1 2 2 4.5t1 3.5v28h10v-212
q-2 0 -4 0.5t-4 0.5q0 13 -2 37q-2 26 -7 46q-11 52 -31 83.5t-44 31.5h-1q-30 3 -52.5 -23t-30.5 -59q-16 -67 31 -136q14 -21 67 -87.5t75 -106.5q68 -123 -3 -217q-24 -32 -58.5 -43t-71.5 6q-16 10 -22 17q-19 22 -26 24q-6 2 -11.5 -0.5t-5.5 -9.5v-41h-10zM57 -159
l70 117h43l-69 -117h-44z" />
    <glyph glyph-name="uni021A" unicode="&#x21a;" horiz-adv-x="352" 
d="M111 0v8h39v672h-54q-28 -1 -48.5 -27.5t-20.5 -55.5h-7v91h312v-91h-7q0 29 -20.5 55.5t-48.5 27.5h-54v-672h39v-8h-130zM101 -159l70 117h43l-69 -117h-44z" />
    <glyph glyph-name="uni021B" unicode="&#x21b;" horiz-adv-x="352" 
d="M111 0v8h39v672h-54q-28 -1 -48.5 -27.5t-20.5 -55.5h-7v91h312v-91h-7q0 29 -20.5 55.5t-48.5 27.5h-54v-672h39v-8h-130zM110 -159l70 117h43l-69 -117h-44z" />
    <glyph glyph-name="gravecomb" unicode="&#x300;" horiz-adv-x="0" 
d="M-63 735l-70 116h43l70 -116h-43z" />
    <glyph glyph-name="acutecomb" unicode="&#x301;" horiz-adv-x="0" 
d="M-122 734l70 116h43l-70 -116h-43z" />
    <glyph glyph-name="uni0302" unicode="&#x302;" horiz-adv-x="0" 
d="M-265 729l-42 5l143 151l1 1v-1l143 -151l-41 -5l-102 107z" />
    <glyph glyph-name="tildecomb" unicode="&#x303;" horiz-adv-x="0" 
d="M-77 729l-19 6q-38 14 -58 22q-52 23 -55 24q-21 8 -32 -3t-5 -36q-2 0 -4 -2q-6 16 2 43q8 28 21 36q13 7 34 1q4 -1 37 -15q12 -6 38 -16q42 -16 56 -20q21 -6 31 5q12 13 4 37q2 0 4 2q6 -14 0 -43q-8 -29 -20 -37q-11 -8 -34 -4z" />
    <glyph glyph-name="uni0304" unicode="&#x304;" horiz-adv-x="0" 
d="M-268 735v50h248v-50h-248z" />
    <glyph glyph-name="uni0306" unicode="&#x306;" horiz-adv-x="0" 
d="M-125 745q-43 0 -73.5 25.5t-30.5 62.5h2q0 -22 30 -37.5t72 -15.5q43 0 73 15.5t30 37.5h2q0 -37 -30.5 -62.5t-74.5 -25.5z" />
    <glyph glyph-name="uni0307" unicode="&#x307;" horiz-adv-x="0" 
d="M-52 728q-7 0 -11 2q-13 5 -19 17q-6 11 -2 25q5 13 17 19q10 6 25 1q13 -5 19 -17t1.5 -25t-16.5 -19q-6 -3 -14 -3z" />
    <glyph glyph-name="uni0308" unicode="&#x308;" horiz-adv-x="0" 
d="M-161 728q-7 0 -11 2q-13 5 -19 17q-5 11 -2 25q5 13 17 19q10 6 25 1q13 -5 19 -17t1.5 -25t-16.5 -19q-6 -3 -14 -3zM-52 728q-7 0 -11 2q-13 5 -19 17q-6 11 -2 25q5 13 17 19q10 6 25 1q13 -5 19 -17t1.5 -25t-16.5 -19q-6 -3 -14 -3z" />
    <glyph glyph-name="uni030A" unicode="&#x30a;" horiz-adv-x="0" 
d="M-109 728q-37 0 -63 22.5t-26 54.5t26 54.5t63 22.5t63 -22.5t26 -54.5t-26 -54.5t-63 -22.5zM-109 729q22 0 37.5 22.5t15.5 53.5t-15.5 53.5t-37.5 22.5t-38 -22t-16 -54t16 -54t38 -22z" />
    <glyph glyph-name="uni030B" unicode="&#x30b;" horiz-adv-x="0" 
d="M-245 733l70 116h43l-70 -116h-43zM-156 733l70 116h43l-70 -116h-43z" />
    <glyph glyph-name="uni030C" unicode="&#x30c;" horiz-adv-x="0" 
d="M-164 724l-1 1l-143 151l42 5l102 -107l102 107l41 -5l-143 -151v-1z" />
    <glyph glyph-name="uni0312" unicode="&#x312;" horiz-adv-x="0" 
d="M-53 733q-28 0 -37 33q-8 24 1 45q7 17 25 27q10 6 17 6q7 2 8 0q1 0 1 -6q-22 -11 -26 -23q-3 -10 -1 -18q8 2 12 2q13 0 23 -9.5t10 -23.5t-9.5 -23.5t-23.5 -9.5z" />
    <glyph glyph-name="uni0326" unicode="&#x326;" horiz-adv-x="0" 
d="M-135 -159l70 117h43l-69 -117h-44z" />
    <glyph glyph-name="uni0327" unicode="&#x327;" horiz-adv-x="0" 
d="M-93 -38v39h8v-39h-8zM-91 -157q-16 0 -27 8q-9 6 -11 18h2q4 -11 11 -16q11 -8 27 -8q17 2 28.5 18.5t11.5 39.5q0 24 -12.5 41t-31.5 17v1q31 0 52 -17.5t21 -41.5t-19.5 -41.5t-47.5 -18.5h-2h-2z" />
    <glyph glyph-name="uni0328" unicode="&#x328;" horiz-adv-x="0" 
d="M-20 -176q-37 -3 -51 3q-39 14 -46 60q-5 26 3 53.5t28 44.5q21 17 28 14q-12 -9 -13 -10q-19 -22 -23 -58q-3 -27 8.5 -49t36.5 -26h8.5h10.5h9z" />
    <glyph glyph-name="uni0335" unicode="&#x335;" horiz-adv-x="0" 
d="M-266 317v50h216v-50h-216z" />
    <glyph glyph-name="uni0336" unicode="&#x336;" horiz-adv-x="0" 
d="M-394 425v50h231v-50h-231z" />
    <glyph glyph-name="uni0337" unicode="&#x337;" horiz-adv-x="0" 
d="M-169 23l166 567h50l-166 -567h-50z" />
    <glyph glyph-name="uni0338" unicode="&#x338;" horiz-adv-x="0" 
d="M-238 0l168 688h50l-168 -688h-50z" />
    <glyph glyph-name="Wgrave" unicode="&#x1e80;" horiz-adv-x="451" 
d="M222 735l-70 116h43l70 -116h-43zM144 1l-114 679h-30v8h112v-8h-30l82 -486l46 291l-33 195h-29v8h112v-8h-31l83 -488l78 488h-51v8h112v-8h-53l-106 -674l-1 -5l-77 458l-45 -294l-10 -63l-15 -96v-5z" />
    <glyph glyph-name="wgrave" unicode="&#x1e81;" horiz-adv-x="451" 
d="M216 735l-70 116h43l70 -116h-43zM144 1l-114 679h-30v8h112v-8h-30l82 -486l46 291l-33 195h-29v8h112v-8h-31l83 -488l78 488h-51v8h112v-8h-53l-106 -674l-1 -5l-77 458l-45 -294l-10 -63l-15 -96v-5z" />
    <glyph glyph-name="Wacute" unicode="&#x1e82;" horiz-adv-x="451" 
d="M183 734l70 116h43l-70 -116h-43zM144 1l-114 679h-30v8h112v-8h-30l82 -486l46 291l-33 195h-29v8h112v-8h-31l83 -488l78 488h-51v8h112v-8h-53l-106 -674l-1 -5l-77 458l-45 -294l-10 -63l-15 -96v-5z" />
    <glyph glyph-name="wacute" unicode="&#x1e83;" horiz-adv-x="451" 
d="M177 734l70 116h43l-70 -116h-43zM144 1l-114 679h-30v8h112v-8h-30l82 -486l46 291l-33 195h-29v8h112v-8h-31l83 -488l78 488h-51v8h112v-8h-53l-106 -674l-1 -5l-77 458l-45 -294l-10 -63l-15 -96v-5z" />
    <glyph glyph-name="Wdieresis" unicode="&#x1e84;" horiz-adv-x="451" 
d="M168 728q-7 0 -11 2q-13 5 -19 17q-6 11 -2 25q5 13 17 19q10 6 25 1q13 -5 19 -17t1.5 -25t-16.5 -19q-6 -3 -14 -3zM277 728q-7 0 -11 2q-13 5 -19 17q-5 11 -2 25q5 13 17 19q10 6 25 1q13 -5 19 -17t1.5 -25t-16.5 -19q-6 -3 -14 -3zM144 1l-114 679h-30v8h112v-8
h-30l82 -486l46 291l-33 195h-29v8h112v-8h-31l83 -488l78 488h-51v8h112v-8h-53l-106 -674l-1 -5l-77 458l-45 -294l-10 -63l-15 -96v-5z" />
    <glyph glyph-name="wdieresis" unicode="&#x1e85;" horiz-adv-x="451" 
d="M159 728q-7 0 -11 2q-13 5 -19 17q-5 11 -2 25q5 13 17 19q10 6 25 1q13 -5 19 -17t1.5 -25t-16.5 -19q-6 -3 -14 -3zM268 728q-7 0 -11 2q-13 5 -19 17q-6 11 -2 25q5 13 17 19q10 6 25 1q13 -5 19 -17t1.5 -25t-16.5 -19q-6 -3 -14 -3zM144 1l-114 679h-30v8h112v-8
h-30l82 -486l46 291l-33 195h-29v8h112v-8h-31l83 -488l78 488h-51v8h112v-8h-53l-106 -674l-1 -5l-77 458l-45 -294l-10 -63l-15 -96v-5z" />
    <glyph glyph-name="Ygrave" unicode="&#x1ef2;" horiz-adv-x="320" 
d="M153 735l-70 116h43l70 -116h-43zM84 0v8h39v345l-90 327h-33v8h112v-8h-27l85 -307l89 307h-51v8h112v-8h-53l-92 -317v-355h40v-8h-131z" />
    <glyph glyph-name="ygrave" unicode="&#x1ef3;" horiz-adv-x="320" 
d="M156 735l-70 116h43l70 -116h-43zM84 0v8h39v345l-90 327h-33v8h112v-8h-27l85 -307l89 307h-51v8h112v-8h-53l-92 -317v-355h40v-8h-131z" />
    <glyph glyph-name="endash" unicode="&#x2013;" horiz-adv-x="338" 
d="M20 317v50h298v-50h-298z" />
    <glyph glyph-name="emdash" unicode="&#x2014;" horiz-adv-x="426" 
d="M20 317v50h386v-50h-386z" />
    <glyph glyph-name="quoteleft" unicode="&#x2018;" horiz-adv-x="113" 
d="M60 570q-28 0 -37 33q-8 24 1 45q7 17 25 27q10 6 17 6q7 2 8 0q1 -1 1 -6q-22 -11 -26 -23q-3 -10 -1 -18q8 2 12 2q14 0 23.5 -10t9.5 -23q0 -14 -9.5 -23.5t-23.5 -9.5z" />
    <glyph glyph-name="quoteright" unicode="&#x2019;" horiz-adv-x="113" 
d="M39 573q-1 1 -1 6q22 11 26 23q3 10 1 18q-8 -2 -12 -2q-13 0 -23 10t-10 23q0 14 9.5 23.5t23.5 9.5q28 0 37 -33q8 -24 -1 -45q-7 -17 -25 -27q-10 -6 -17 -6q-7 -2 -8 0z" />
    <glyph glyph-name="quotesinglbase" unicode="&#x201a;" horiz-adv-x="113" 
d="M39 -44q-1 0 -1 6q22 11 26 23q3 10 1 18q-8 -2 -12 -2q-13 0 -23 9.5t-10 23.5t9.5 23.5t23.5 9.5q28 0 37 -33q8 -24 -1 -45q-7 -17 -25 -27q-10 -6 -17 -6q-7 -2 -8 0z" />
    <glyph glyph-name="quotedblleft" unicode="&#x201c;" horiz-adv-x="200" 
d="M60 570q-28 0 -37 33q-8 24 1 45q7 17 25 27q10 6 17 6q7 2 8 0q1 -1 1 -6q-22 -11 -26 -23q-3 -10 -1 -18q8 2 12 2q14 0 23.5 -10t9.5 -23q0 -14 -9.5 -23.5t-23.5 -9.5zM147 570q-28 0 -37 33q-8 24 1 45q7 17 25 27q10 6 17 6q7 2 8 0q1 -1 1 -6q-22 -11 -26 -23
q-3 -10 -1 -18q8 2 12 2q13 0 23 -10t10 -23q0 -14 -9.5 -23.5t-23.5 -9.5z" />
    <glyph glyph-name="quotedblright" unicode="&#x201d;" horiz-adv-x="200" 
d="M39 573q-1 1 -1 6q22 11 26 23q3 10 1 18q-8 -2 -12 -2q-13 0 -23 10t-10 23q0 14 9.5 23.5t23.5 9.5q28 0 37 -33q8 -24 -1 -45q-7 -17 -25 -27q-10 -6 -17 -6q-7 -2 -8 0zM126 573q-1 1 -1 6q22 11 26 23q3 10 1 18q-8 -2 -12 -2q-14 0 -23.5 10t-9.5 23q0 14 9.5 23.5
t23.5 9.5q28 0 37 -33q8 -24 -1 -45q-7 -17 -25 -27q-10 -6 -17 -6q-7 -2 -8 0z" />
    <glyph glyph-name="quotedblbase" unicode="&#x201e;" horiz-adv-x="113" 
d="M90 34q8 -24 -1 -45q-7 -17 -25 -27q-10 -6 -17 -6q-7 -2 -8 0q-1 0 -1 6q22 11 26 23q3 10 1 18q-8 -2 -12 -2q-13 0 -23 9.5t-10 23.5t9.5 23.5t23.5 9.5q28 0 37 -33z" />
    <glyph glyph-name="bullet" unicode="&#x2022;" horiz-adv-x="218" 
d="M109 220q-3 0 -30 5q-37 13 -49 47q-18 33 -5 68q7 33 43 51q29 15 68 6q35 -13 52 -47t5 -70t-46 -52q-18 -8 -38 -8z" />
    <glyph glyph-name="ellipsis" unicode="&#x2026;" horiz-adv-x="330" 
d="M54 1q-5 0 -11 2q-13 4 -19 17t-2 25q3 12 16 19q11 6 25 2q13 -5 19 -17q6 -13 2 -26t-16 -19q-7 -3 -14 -3zM164 1q-5 0 -11 2q-13 4 -19 17t-2 25q3 12 16 19q11 6 25 2q13 -5 19 -17q6 -13 2 -26t-16 -19q-8 -3 -14 -3zM278 1q-5 0 -11 2q-13 4 -19 17t-2 25
q3 12 16 19q11 6 25 2q13 -5 19 -17q6 -13 2 -26t-16 -19q-8 -3 -14 -3z" />
    <glyph glyph-name="perthousand" unicode="&#x2030;" horiz-adv-x="577" 
d="M120 95l117 408q-28 -16 -63 -16q-11 -1 -35 3q28 -23 28 -62q0 -32 -21.5 -55t-51.5 -23q-31 0 -52.5 23t-21.5 55q0 33 21.5 56t52.5 23q1 0 43 -9q27 -6 52 -2q31 4 47 16q6 4 6 10h47l-122 -427h-47zM94 352q18 0 31 22.5t13 53.5q0 32 -13 54.5t-31 22.5
q-19 0 -32 -22.5t-13 -54.5t13 -54t32 -22zM315 112q-31 0 -52.5 23t-21.5 56q0 32 21.5 55t52.5 23t52 -23t21 -55q0 -33 -21 -56t-52 -23zM484 112q-31 0 -52.5 23t-21.5 56q0 32 21.5 55t52.5 23t52 -23t21 -55q0 -33 -21 -56t-52 -23zM315 114q18 0 31 22.5t13 54.5
q0 31 -13 53.5t-31 22.5q-19 0 -32 -22t-13 -54t13 -54.5t32 -22.5zM484 114q18 0 31 22.5t13 54.5q0 31 -13 53.5t-31 22.5q-19 0 -32 -22t-13 -54t13 -54.5t32 -22.5z" />
    <glyph glyph-name="guilsinglleft" unicode="&#x2039;" horiz-adv-x="352" 
d="M322 175l-301 167h-1v1h1l301 167l10 -49l-213 -118l213 -119z" />
    <glyph glyph-name="guilsinglright" unicode="&#x203a;" horiz-adv-x="352" 
d="M29 175l-9 49l212 119l-212 118l9 49l302 -167h1v-1h-1z" />
    <glyph glyph-name="fraction" unicode="&#x2044;" horiz-adv-x="258" 
d="M20 0l168 688h50l-168 -688h-50z" />
    <glyph glyph-name="minus" unicode="&#x2212;" horiz-adv-x="288" 
d="M20 318v49h248v-49h-248z" />
    <glyph glyph-name="approxequal" unicode="&#x2248;" horiz-adv-x="445" 
d="M325 336q-6 1 -17 3.5t-16 3.5q-61 14 -100 25q-77 24 -95 28q-37 10 -56 -3q-21 -16 -8 -43q-4 0 -8 -2q-10 18 4 50q13 32 37 43q22 8 59 1q11 -2 63 -17q28 -9 65 -19q79 -20 97 -23q39 -6 55 6q19 16 6 43l8 3q11 -17 -1 -51q-11 -32 -34 -43q-21 -11 -59 -5z
M325 208q-6 1 -17 3.5t-16 3.5q-34 7 -100 25q-9 3 -42.5 13.5t-52.5 14.5q-37 10 -56 -4q-22 -14 -8 -42q-1 0 -4 -1t-5 -1q-10 20 5 50q13 32 37 42q21 10 59 2q9 -2 19.5 -5t23.5 -7t20 -6l65 -18q79 -20 97 -23q37 -8 55 6q19 16 6 43l8 3q10 -19 -1 -51
q-14 -34 -34 -44q-22 -10 -59 -4z" />
    <glyph glyph-name="i.loclTRK" horiz-adv-x="210" 
d="M105 728q-7 0 -11 2q-13 5 -19 17q-5 11 -2 25q5 13 17 19q10 6 25 1q13 -5 19 -17t1.5 -25t-16.5 -19q-6 -3 -14 -3zM40 0v8h39v672h-39v8h130v-8h-39v-672h39v-8h-130z" />
    </font>
</defs>
</svg>
